G04 #@! TF.GenerationSoftware,KiCad,Pcbnew,(5.1.2)-1*
G04 #@! TF.CreationDate,2019-06-24T21:27:01+09:30*
G04 #@! TF.ProjectId,EEPROM_Programmer,45455052-4f4d-45f5-9072-6f6772616d6d,rev?*
G04 #@! TF.SameCoordinates,Original*
G04 #@! TF.FileFunction,Copper,L1,Top*
G04 #@! TF.FilePolarity,Positive*
%FSLAX45Y45*%
G04 Gerber Fmt 4.5, Leading zero omitted, Abs format (unit mm)*
G04 Created by KiCad (PCBNEW (5.1.2)-1) date 2019-06-24 21:27:01*
%MOMM*%
%LPD*%
G04 APERTURE LIST*
%ADD10O,1.600000X2.400000*%
%ADD11R,1.600000X2.400000*%
%ADD12O,1.700000X1.700000*%
%ADD13R,1.700000X1.700000*%
%ADD14R,1.727200X1.727200*%
%ADD15O,1.727200X1.727200*%
%ADD16O,1.600000X1.600000*%
%ADD17R,1.600000X1.600000*%
%ADD18C,2.000000*%
%ADD19C,1.200000*%
%ADD20C,1.000000*%
G04 APERTURE END LIST*
D10*
X17272000Y-6731000D03*
X19050000Y-7493000D03*
X17526000Y-6731000D03*
X18796000Y-7493000D03*
X17780000Y-6731000D03*
X18542000Y-7493000D03*
X18034000Y-6731000D03*
X18288000Y-7493000D03*
X18288000Y-6731000D03*
X18034000Y-7493000D03*
X18542000Y-6731000D03*
X17780000Y-7493000D03*
X18796000Y-6731000D03*
X17526000Y-7493000D03*
X19050000Y-6731000D03*
D11*
X17272000Y-7493000D03*
D12*
X20574000Y-9652000D03*
X20574000Y-9398000D03*
D13*
X20574000Y-9144000D03*
D14*
X18923000Y-8128000D03*
D15*
X18923000Y-8382000D03*
X18669000Y-8128000D03*
X18669000Y-8382000D03*
X18415000Y-8128000D03*
X18415000Y-8382000D03*
X18161000Y-8128000D03*
X18161000Y-8382000D03*
X17907000Y-8128000D03*
X17907000Y-8382000D03*
X17653000Y-8128000D03*
X17653000Y-8382000D03*
X17399000Y-8128000D03*
X17399000Y-8382000D03*
X17145000Y-8128000D03*
X17145000Y-8382000D03*
X16891000Y-8128000D03*
X16891000Y-8382000D03*
X16637000Y-8128000D03*
X16637000Y-8382000D03*
X16383000Y-8128000D03*
X16383000Y-8382000D03*
X16129000Y-8128000D03*
X16129000Y-8382000D03*
X15875000Y-8128000D03*
X15875000Y-8382000D03*
X15621000Y-8128000D03*
X15621000Y-8382000D03*
X15367000Y-8128000D03*
X15367000Y-8382000D03*
X15113000Y-8128000D03*
X15113000Y-8382000D03*
X14859000Y-8128000D03*
X14859000Y-8382000D03*
D16*
X13970000Y-9525000D03*
X13716000Y-9525000D03*
X17678000Y-9525000D03*
X13716000Y-4699000D03*
X17424000Y-9525000D03*
X13970000Y-4699000D03*
X17170000Y-9525000D03*
X14224000Y-4699000D03*
X16916000Y-9525000D03*
X14478000Y-4699000D03*
X16662000Y-9525000D03*
X14732000Y-4699000D03*
X16408000Y-9525000D03*
X14986000Y-4699000D03*
X16154000Y-9525000D03*
X15494000Y-4699000D03*
X15900000Y-9525000D03*
X15748000Y-4699000D03*
X15494000Y-9525000D03*
X16002000Y-4699000D03*
X15240000Y-9525000D03*
X16256000Y-4699000D03*
X14986000Y-9525000D03*
X16510000Y-4699000D03*
X14732000Y-9525000D03*
X16764000Y-4699000D03*
X14478000Y-9525000D03*
X17018000Y-4699000D03*
X14224000Y-9525000D03*
D17*
X17272000Y-4699000D03*
D16*
X17932000Y-9525000D03*
X18186000Y-9525000D03*
D10*
X14986000Y-6731000D03*
X16764000Y-7493000D03*
X15240000Y-6731000D03*
X16510000Y-7493000D03*
X15494000Y-6731000D03*
X16256000Y-7493000D03*
X15748000Y-6731000D03*
X16002000Y-7493000D03*
X16002000Y-6731000D03*
X15748000Y-7493000D03*
X16256000Y-6731000D03*
X15494000Y-7493000D03*
X16510000Y-6731000D03*
X15240000Y-7493000D03*
X16764000Y-6731000D03*
D11*
X14986000Y-7493000D03*
D18*
X17144999Y-5979010D03*
X17145000Y-5039002D03*
X14732000Y-6477000D03*
X14732000Y-5715000D03*
X16256000Y-6350000D03*
X16256000Y-5080000D03*
X18542000Y-4953000D03*
X18542000Y-6237000D03*
X17272000Y-6477000D03*
X16510000Y-6477000D03*
X18034000Y-6223000D03*
X18034000Y-4699000D03*
X13335000Y-8763000D03*
X13970000Y-8763000D03*
X18288000Y-6223000D03*
X18288000Y-4445000D03*
X17272000Y-6222999D03*
X16764000Y-6223000D03*
X19812000Y-9525000D03*
X19050000Y-9525000D03*
X19304000Y-7239000D03*
X20701000Y-7239000D03*
D19*
X17144999Y-5979010D02*
X17144999Y-5039002D01*
X17144999Y-5039002D02*
X17145000Y-5039002D01*
X14732000Y-6477000D02*
X14732000Y-5715000D01*
X16256000Y-6350000D02*
X16256000Y-5080000D01*
X18542000Y-4953000D02*
X18542000Y-6237000D01*
X16510000Y-6477000D02*
X17272000Y-6477000D01*
D20*
X18034000Y-4699000D02*
X18034000Y-6223000D01*
X13970000Y-8763000D02*
X13335000Y-8763000D01*
X18288000Y-4445000D02*
X18288000Y-6223000D01*
X16764001Y-6222999D02*
X16764000Y-6223000D01*
X17272000Y-6222999D02*
X16764001Y-6222999D01*
X19050000Y-9525000D02*
X19812000Y-9525000D01*
X20701000Y-7239000D02*
X19304000Y-7239000D01*
M02*
