G04 #@! TF.GenerationSoftware,KiCad,Pcbnew,(5.1.2)-1*
G04 #@! TF.CreationDate,2019-06-28T17:07:01+09:30*
G04 #@! TF.ProjectId,27(C)256 programmer,32372843-2932-4353-9620-70726f677261,rev?*
G04 #@! TF.SameCoordinates,Original*
G04 #@! TF.FileFunction,Copper,L2,Bot*
G04 #@! TF.FilePolarity,Positive*
%FSLAX46Y46*%
G04 Gerber Fmt 4.6, Leading zero omitted, Abs format (unit mm)*
G04 Created by KiCad (PCBNEW (5.1.2)-1) date 2019-06-28 17:07:01*
%MOMM*%
%LPD*%
G04 APERTURE LIST*
%ADD10O,2.400000X1.600000*%
%ADD11R,2.400000X1.600000*%
%ADD12O,1.727200X1.727200*%
%ADD13R,1.727200X1.727200*%
%ADD14C,2.000000*%
%ADD15C,1.200000*%
G04 APERTURE END LIST*
D10*
X160020000Y-66040000D03*
X144780000Y-99060000D03*
X160020000Y-68580000D03*
X144780000Y-96520000D03*
X160020000Y-71120000D03*
X144780000Y-93980000D03*
X160020000Y-73660000D03*
X144780000Y-91440000D03*
X160020000Y-76200000D03*
X144780000Y-88900000D03*
X160020000Y-78740000D03*
X144780000Y-86360000D03*
X160020000Y-81280000D03*
X144780000Y-83820000D03*
X160020000Y-83820000D03*
X144780000Y-81280000D03*
X160020000Y-86360000D03*
X144780000Y-78740000D03*
X160020000Y-88900000D03*
X144780000Y-76200000D03*
X160020000Y-91440000D03*
X144780000Y-73660000D03*
X160020000Y-93980000D03*
X144780000Y-71120000D03*
X160020000Y-96520000D03*
X144780000Y-68580000D03*
X160020000Y-99060000D03*
D11*
X144780000Y-66040000D03*
D12*
X110490000Y-66040000D03*
X113030000Y-66040000D03*
X110490000Y-68580000D03*
X113030000Y-68580000D03*
X110490000Y-71120000D03*
X113030000Y-71120000D03*
X110490000Y-73660000D03*
X113030000Y-73660000D03*
X110490000Y-76200000D03*
X113030000Y-76200000D03*
X110490000Y-78740000D03*
X113030000Y-78740000D03*
X110490000Y-81280000D03*
X113030000Y-81280000D03*
X110490000Y-83820000D03*
X113030000Y-83820000D03*
X110490000Y-86360000D03*
X113030000Y-86360000D03*
X110490000Y-88900000D03*
X113030000Y-88900000D03*
X110490000Y-91440000D03*
X113030000Y-91440000D03*
X110490000Y-93980000D03*
X113030000Y-93980000D03*
X110490000Y-96520000D03*
X113030000Y-96520000D03*
X110490000Y-99060000D03*
X113030000Y-99060000D03*
X110490000Y-101600000D03*
X113030000Y-101600000D03*
X110490000Y-104140000D03*
X113030000Y-104140000D03*
X110490000Y-106680000D03*
D13*
X113030000Y-106680000D03*
D14*
X133350000Y-100330000D03*
X133350000Y-130810000D03*
X127000000Y-68580000D03*
X121920000Y-68580000D03*
X135890000Y-100330000D03*
X135890000Y-129540000D03*
X128270000Y-71120000D03*
X121920000Y-71120000D03*
X138430000Y-100205998D03*
X138430000Y-128270000D03*
X129540000Y-73660000D03*
X121920000Y-73660000D03*
X163830000Y-99060000D03*
X182880000Y-99060000D03*
X130810000Y-76200000D03*
X121920000Y-76200000D03*
X163830000Y-96520000D03*
X181610000Y-96520000D03*
X139700000Y-91440000D03*
X139700000Y-76200000D03*
X163830000Y-93980000D03*
X180339992Y-93980000D03*
X137160000Y-92710000D03*
X137160000Y-76199998D03*
X163830000Y-91440000D03*
X179070000Y-91440000D03*
X134620000Y-76200000D03*
X134620004Y-92710000D03*
X163830000Y-88900000D03*
X177800000Y-88900000D03*
X120650000Y-92710000D03*
X120650000Y-109220000D03*
X163830000Y-81280000D03*
X176530000Y-81280000D03*
X123190000Y-96520000D03*
X123190000Y-109220000D03*
X128270000Y-100205998D03*
X128270000Y-109220000D03*
X125730000Y-100330000D03*
X125730000Y-109220000D03*
X115570000Y-109220000D03*
X115417374Y-99212626D03*
X140969996Y-107950000D03*
X140969996Y-100330004D03*
D15*
X155956399Y-64376399D02*
X110883601Y-64376399D01*
X160020000Y-66040000D02*
X157620000Y-66040000D01*
X157620000Y-66040000D02*
X155956399Y-64376399D01*
X110490000Y-64770000D02*
X110490000Y-66040000D01*
X110883601Y-64376399D02*
X110490000Y-64770000D01*
X113030000Y-66040000D02*
X123190000Y-66040000D01*
X124939980Y-88109978D02*
X141589978Y-88109978D01*
X123190000Y-66040000D02*
X124590011Y-67440011D01*
X124590011Y-87760009D02*
X124939980Y-88109978D01*
X141589978Y-88109978D02*
X142380000Y-88900000D01*
X124590011Y-67440011D02*
X124590011Y-87760009D01*
X142380000Y-88900000D02*
X144780000Y-88900000D01*
X137430010Y-96389990D02*
X134750010Y-96389990D01*
X144780000Y-91440000D02*
X142380000Y-91440000D01*
X142380000Y-91440000D02*
X137430010Y-96389990D01*
X134750010Y-96389990D02*
X133350000Y-97790000D01*
X133350000Y-97790000D02*
X133350000Y-100330000D01*
X133350000Y-100330000D02*
X133350000Y-100330000D01*
X133350000Y-130810000D02*
X133350000Y-130810000D01*
X96226310Y-82843690D02*
X96226311Y-112697661D01*
X110490000Y-68580000D02*
X96226310Y-82843690D01*
X96226311Y-112697661D02*
X113588683Y-130060035D01*
X113588683Y-130060035D02*
X132600035Y-130060035D01*
X132600035Y-130060035D02*
X133350000Y-130810000D01*
X118110000Y-68580000D02*
X121920000Y-68580000D01*
X127000000Y-68580000D02*
X127000000Y-68580000D01*
X121920000Y-68580000D02*
X121920000Y-68580000D01*
X113030000Y-68580000D02*
X118110000Y-68580000D01*
X125990022Y-69589978D02*
X126000001Y-69579999D01*
X126000001Y-69579999D02*
X127000000Y-68580000D01*
X127130010Y-86360000D02*
X125990022Y-85220012D01*
X125990022Y-85220012D02*
X125990022Y-69589978D01*
X144780000Y-86360000D02*
X127130010Y-86360000D01*
X144780000Y-93980000D02*
X142240000Y-93980000D01*
X142240000Y-93980000D02*
X138430000Y-97790000D01*
X138430000Y-97790000D02*
X137160000Y-97790000D01*
X137160000Y-97790000D02*
X135890000Y-99060000D01*
X135890000Y-99060000D02*
X135890000Y-100330000D01*
X135890000Y-100330000D02*
X135890000Y-100330000D01*
X97626320Y-112117758D02*
X105468465Y-119959903D01*
X110490000Y-71120000D02*
X97626319Y-83983681D01*
X97626319Y-83983681D02*
X97626320Y-112117758D01*
X105468465Y-119959903D02*
X114168586Y-128660025D01*
X114168586Y-128660025D02*
X135010025Y-128660025D01*
X135010025Y-128660025D02*
X135890000Y-129540000D01*
X135890000Y-129540000D02*
X135890000Y-129540000D01*
X118110000Y-71120000D02*
X121920000Y-71120000D01*
X128270000Y-71120000D02*
X128270000Y-71120000D01*
X121920000Y-71120000D02*
X121920000Y-71120000D01*
X118110000Y-71120000D02*
X113030000Y-71120000D01*
X127390033Y-71999967D02*
X128270000Y-71120000D01*
X144780000Y-83820000D02*
X128530020Y-83820000D01*
X128530020Y-83820000D02*
X127390033Y-82680013D01*
X127390033Y-82680013D02*
X127390033Y-71999967D01*
X142115998Y-96520000D02*
X138430000Y-100205998D01*
X144780000Y-96520000D02*
X142115998Y-96520000D01*
X138430000Y-100205998D02*
X138430000Y-100205998D01*
X99026329Y-111537855D02*
X106868474Y-119380000D01*
X110490000Y-73660000D02*
X99026328Y-85123672D01*
X99026328Y-85123672D02*
X99026329Y-111537855D01*
X114748489Y-127260015D02*
X137420015Y-127260015D01*
X106868474Y-119380000D02*
X114748489Y-127260015D01*
X137420015Y-127260015D02*
X138430000Y-128270000D01*
X138430000Y-128270000D02*
X138430000Y-128270000D01*
X118110000Y-73660000D02*
X121920000Y-73660000D01*
X129540000Y-73660000D02*
X129540000Y-73660000D01*
X121920000Y-73660000D02*
X121920000Y-73660000D01*
X113030000Y-73660000D02*
X118110000Y-73660000D01*
X128790042Y-74409958D02*
X129540000Y-73660000D01*
X144780000Y-81280000D02*
X129930030Y-81280000D01*
X128790042Y-80140012D02*
X128790042Y-74409958D01*
X129930030Y-81280000D02*
X128790042Y-80140012D01*
X160020000Y-99060000D02*
X163830000Y-99060000D01*
X163830000Y-99060000D02*
X163830000Y-99060000D01*
X118350617Y-125860006D02*
X152064118Y-125860005D01*
X106212053Y-116743667D02*
X107853667Y-116743667D01*
X182880000Y-106979656D02*
X182880000Y-100474213D01*
X164129656Y-125730000D02*
X182880000Y-106979656D01*
X152194123Y-125730000D02*
X164129656Y-125730000D01*
X100426337Y-86263663D02*
X100426338Y-110957952D01*
X118220611Y-125730000D02*
X118350617Y-125860006D01*
X107853667Y-116743667D02*
X116840000Y-125730000D01*
X116840000Y-125730000D02*
X118220611Y-125730000D01*
X182880000Y-100474213D02*
X182880000Y-99060000D01*
X152064118Y-125860005D02*
X152194123Y-125730000D01*
X100426338Y-110957952D02*
X106212053Y-116743667D01*
X110490000Y-76200000D02*
X100426337Y-86263663D01*
X144780000Y-78740000D02*
X132080000Y-78740000D01*
X132080000Y-78740000D02*
X130810000Y-77470000D01*
X130810000Y-77470000D02*
X130810000Y-76200000D01*
X118110000Y-76200000D02*
X121920000Y-76200000D01*
X130810000Y-76200000D02*
X130810000Y-76200000D01*
X121920000Y-76200000D02*
X121920000Y-76200000D01*
X113030000Y-76200000D02*
X118110000Y-76200000D01*
X160020000Y-96520000D02*
X163830000Y-96520000D01*
X163830000Y-96520000D02*
X163830000Y-96520000D01*
X106791956Y-115343656D02*
X108433571Y-115343657D01*
X101826347Y-87403653D02*
X101826348Y-110378048D01*
X163549754Y-124329988D02*
X181079999Y-106799743D01*
X110490000Y-78740000D02*
X101826347Y-87403653D01*
X118800510Y-124329989D02*
X118930519Y-124459996D01*
X117419903Y-124329989D02*
X118800510Y-124329989D01*
X151614220Y-124329989D02*
X163549754Y-124329988D01*
X151484214Y-124459995D02*
X151614220Y-124329989D01*
X118930519Y-124459996D02*
X151484214Y-124459995D01*
X181079999Y-106799743D02*
X181079999Y-97050001D01*
X181079999Y-97050001D02*
X181610000Y-96520000D01*
X108433571Y-115343657D02*
X117419903Y-124329989D01*
X101826348Y-110378048D02*
X106791956Y-115343656D01*
X142240000Y-76200000D02*
X142240000Y-76200000D01*
X144780000Y-76200000D02*
X139700000Y-76200000D01*
X138700001Y-90440001D02*
X139700000Y-91440000D01*
X137769987Y-89509987D02*
X138700001Y-90440001D01*
X124360075Y-89509987D02*
X137769987Y-89509987D01*
X114453687Y-79603599D02*
X124360075Y-89509987D01*
X113893599Y-79603599D02*
X114453687Y-79603599D01*
X113030000Y-78740000D02*
X113893599Y-79603599D01*
X160020000Y-93980000D02*
X163830000Y-93980000D01*
X163830000Y-93980000D02*
X163830000Y-93980000D01*
X151034317Y-122929978D02*
X162969850Y-122929978D01*
X110490000Y-81280000D02*
X104400022Y-87369978D01*
X162969850Y-122929978D02*
X179330022Y-106569806D01*
X117999806Y-122929978D02*
X119380413Y-122929978D01*
X104400022Y-87369978D02*
X104400022Y-97308193D01*
X104400022Y-97308193D02*
X103226357Y-98481861D01*
X103226357Y-98481861D02*
X103226358Y-109798144D01*
X103226358Y-109798144D02*
X107371859Y-113943645D01*
X109013473Y-113943645D02*
X117999806Y-122929978D01*
X119380413Y-122929978D02*
X119510421Y-123059986D01*
X119510421Y-123059986D02*
X150904310Y-123059985D01*
X150904310Y-123059985D02*
X151034317Y-122929978D01*
X179330022Y-106569806D02*
X179330022Y-94989970D01*
X107371859Y-113943645D02*
X109013473Y-113943645D01*
X179339993Y-94979999D02*
X180339992Y-93980000D01*
X179330022Y-94989970D02*
X179339993Y-94979999D01*
X137160000Y-74785785D02*
X137160000Y-76199998D01*
X144780000Y-73660000D02*
X138285785Y-73660000D01*
X138285785Y-73660000D02*
X137160000Y-74785785D01*
X113030000Y-81280000D02*
X113893599Y-82143599D01*
X136774211Y-90909998D02*
X137160000Y-91295787D01*
X123780173Y-90909998D02*
X136774211Y-90909998D01*
X113893599Y-82143599D02*
X115013774Y-82143599D01*
X115013774Y-82143599D02*
X123780173Y-90909998D01*
X137160000Y-91295787D02*
X137160000Y-92710000D01*
X160020000Y-91440000D02*
X163830000Y-91440000D01*
X163830000Y-91440000D02*
X163830000Y-91440000D01*
X118579709Y-121529967D02*
X119960312Y-121529967D01*
X105800033Y-97888095D02*
X104626367Y-99061763D01*
X150454414Y-121529967D02*
X162389948Y-121529966D01*
X104626368Y-109218240D02*
X107951762Y-112543634D01*
X162389948Y-121529966D02*
X177930011Y-105989903D01*
X177930011Y-105989903D02*
X177930011Y-92579989D01*
X178070001Y-92439999D02*
X179070000Y-91440000D01*
X177930011Y-92579989D02*
X178070001Y-92439999D01*
X104626367Y-99061763D02*
X104626368Y-109218240D01*
X119960312Y-121529967D02*
X120090323Y-121659976D01*
X150324406Y-121659975D02*
X150454414Y-121529967D01*
X107951762Y-112543634D02*
X109593377Y-112543635D01*
X109593377Y-112543635D02*
X118579709Y-121529967D01*
X105800033Y-88509967D02*
X105800033Y-97888095D01*
X110490000Y-83820000D02*
X105800033Y-88509967D01*
X120090323Y-121659976D02*
X150324406Y-121659975D01*
X144780000Y-71120000D02*
X138285787Y-71120000D01*
X138285787Y-71120000D02*
X134620000Y-74785787D01*
X134620000Y-74785787D02*
X134620000Y-76200000D01*
X114710262Y-83820000D02*
X123600262Y-92710000D01*
X123600262Y-92710000D02*
X133205791Y-92710000D01*
X113030000Y-83820000D02*
X114710262Y-83820000D01*
X133205791Y-92710000D02*
X134620004Y-92710000D01*
X160020000Y-88900000D02*
X163830000Y-88900000D01*
X163830000Y-88900000D02*
X163830000Y-88900000D01*
X120540215Y-120129956D02*
X120670225Y-120259966D01*
X110173279Y-111143623D02*
X119159612Y-120129956D01*
X176800001Y-89899999D02*
X177800000Y-88900000D01*
X149874511Y-120129956D02*
X161810044Y-120129956D01*
X161810044Y-120129956D02*
X176530000Y-105410000D01*
X119159612Y-120129956D02*
X120540215Y-120129956D01*
X176530000Y-90170000D02*
X176800001Y-89899999D01*
X106026377Y-99641665D02*
X106026378Y-108638336D01*
X176530000Y-105410000D02*
X176530000Y-90170000D01*
X108531665Y-111143623D02*
X110173279Y-111143623D01*
X106026378Y-108638336D02*
X108531665Y-111143623D01*
X107200043Y-98467999D02*
X106026377Y-99641665D01*
X110490000Y-86360000D02*
X107200044Y-89649956D01*
X107200044Y-89649956D02*
X107200043Y-98467999D01*
X149744502Y-120259965D02*
X149874511Y-120129956D01*
X120670225Y-120259966D02*
X149744502Y-120259965D01*
X116410339Y-87499990D02*
X120650000Y-91739651D01*
X113030000Y-86360000D02*
X114169990Y-87499990D01*
X114169990Y-87499990D02*
X116410339Y-87499990D01*
X120650000Y-91739651D02*
X120650000Y-92710000D01*
X120650000Y-92710000D02*
X120650000Y-92710000D01*
X120650000Y-109220000D02*
X120650000Y-109220000D01*
X120650000Y-110490000D02*
X120650000Y-109220000D01*
X124819923Y-114659923D02*
X120650000Y-110490000D01*
X163979821Y-73660000D02*
X170570027Y-80250206D01*
X160020000Y-73660000D02*
X163979821Y-73660000D01*
X170570027Y-80250206D02*
X170570027Y-103339705D01*
X170570027Y-103339705D02*
X168139807Y-105769925D01*
X168139807Y-105769925D02*
X156314887Y-105769925D01*
X147424889Y-114659923D02*
X124819923Y-114659923D01*
X156314887Y-105769925D02*
X147424889Y-114659923D01*
X160020000Y-81280000D02*
X163830000Y-81280000D01*
X149294608Y-118729945D02*
X161119526Y-118729945D01*
X121120118Y-118729945D02*
X121250128Y-118859955D01*
X109111568Y-109743612D02*
X110753183Y-109743613D01*
X175129990Y-82680010D02*
X176530000Y-81280000D01*
X121250128Y-118859955D02*
X149164598Y-118859955D01*
X110490000Y-88900000D02*
X108600055Y-90789945D01*
X110753183Y-109743613D02*
X119739515Y-118729945D01*
X107426388Y-100221568D02*
X107426388Y-108058432D01*
X107426388Y-108058432D02*
X109111568Y-109743612D01*
X175129989Y-104719482D02*
X175129990Y-82680010D01*
X161119526Y-118729945D02*
X175129989Y-104719482D01*
X149164598Y-118859955D02*
X149294608Y-118729945D01*
X119739515Y-118729945D02*
X121120118Y-118729945D01*
X108600053Y-99047903D02*
X107426388Y-100221568D01*
X108600055Y-90789945D02*
X108600053Y-99047903D01*
X163830000Y-81280000D02*
X163830000Y-81280000D01*
X176530000Y-81280000D02*
X176530000Y-81280000D01*
X113030000Y-88900000D02*
X115570000Y-88900000D01*
X115570000Y-90879916D02*
X122310030Y-97619945D01*
X115570000Y-88900000D02*
X115570000Y-90879916D01*
X122310030Y-97619945D02*
X122310030Y-97399970D01*
X122310030Y-97399970D02*
X123190000Y-96520000D01*
X123190000Y-96520000D02*
X123190000Y-96520000D01*
X123190000Y-110490000D02*
X123190000Y-109220000D01*
X125959912Y-113259912D02*
X123190000Y-110490000D01*
X146844986Y-113259912D02*
X125959912Y-113259912D01*
X164539907Y-76200000D02*
X169170016Y-80830109D01*
X160020000Y-76200000D02*
X164539907Y-76200000D01*
X169170016Y-80830109D02*
X169170016Y-102759802D01*
X169170016Y-102759802D02*
X167559904Y-104369914D01*
X167559904Y-104369914D02*
X155734983Y-104369915D01*
X155734983Y-104369915D02*
X146844986Y-113259912D01*
X123190000Y-109220000D02*
X123190000Y-109220000D01*
X115013770Y-92303599D02*
X120910020Y-98199848D01*
X113030000Y-91440000D02*
X113893599Y-92303599D01*
X113893599Y-92303599D02*
X115013770Y-92303599D01*
X120910020Y-98199848D02*
X120910020Y-100590021D01*
X120910020Y-100590021D02*
X123929999Y-100590021D01*
X126594001Y-98529999D02*
X128270000Y-100205998D01*
X124865999Y-98529999D02*
X126594001Y-98529999D01*
X123929999Y-100590021D02*
X123929999Y-99465999D01*
X123929999Y-99465999D02*
X124865999Y-98529999D01*
X128270000Y-100205998D02*
X128270000Y-100205998D01*
X128270000Y-109855000D02*
X128270000Y-109220000D01*
X128874890Y-110459890D02*
X128270000Y-109855000D01*
X162420000Y-83820000D02*
X166369994Y-87769994D01*
X160020000Y-83820000D02*
X162420000Y-83820000D01*
X166369994Y-87769994D02*
X166369994Y-101569894D01*
X166369994Y-101569894D02*
X154575175Y-101569895D01*
X154575175Y-101569895D02*
X145685180Y-110459890D01*
X145685180Y-110459890D02*
X128874890Y-110459890D01*
X128270000Y-109220000D02*
X128270000Y-109220000D01*
X114710258Y-93980000D02*
X119510010Y-98779751D01*
X113030000Y-93980000D02*
X114710258Y-93980000D01*
X119510010Y-101730010D02*
X119770031Y-101990031D01*
X119510010Y-98779751D02*
X119510010Y-101730010D01*
X119770031Y-101990031D02*
X124460000Y-101990031D01*
X124460000Y-101990031D02*
X125339969Y-101990031D01*
X125339969Y-101990031D02*
X125730000Y-101600000D01*
X125730000Y-101600000D02*
X125730000Y-100330000D01*
X125730000Y-100330000D02*
X125730000Y-100330000D01*
X127099901Y-111859901D02*
X125730000Y-110490000D01*
X146265083Y-111859901D02*
X127099901Y-111859901D01*
X165099993Y-78740000D02*
X167770005Y-81410012D01*
X125730000Y-110490000D02*
X125730000Y-109220000D01*
X160020000Y-78740000D02*
X165099993Y-78740000D01*
X167770005Y-81410012D02*
X167770005Y-102179899D01*
X167770005Y-102179899D02*
X166979999Y-102969905D01*
X166979999Y-102969905D02*
X155155079Y-102969905D01*
X155155079Y-102969905D02*
X146265083Y-111859901D01*
X125730000Y-109220000D02*
X125730000Y-109220000D01*
X148590000Y-101615344D02*
X146805342Y-103400002D01*
X137556037Y-103390041D02*
X118630041Y-103390041D01*
X115270346Y-96520000D02*
X114251314Y-96520000D01*
X145180000Y-68580000D02*
X148590000Y-71990000D01*
X118630041Y-103390041D02*
X118110000Y-102870000D01*
X144780000Y-68580000D02*
X145180000Y-68580000D01*
X146805342Y-103400002D02*
X137565998Y-103400002D01*
X137565998Y-103400002D02*
X137556037Y-103390041D01*
X118110000Y-102870000D02*
X118110000Y-99359654D01*
X114251314Y-96520000D02*
X113030000Y-96520000D01*
X118110000Y-99359654D02*
X115270346Y-96520000D01*
X148590000Y-71990000D02*
X148590000Y-101615344D01*
X120319418Y-117329934D02*
X111333085Y-108343601D01*
X148584695Y-117459944D02*
X121830031Y-117459944D01*
X111333085Y-108343601D02*
X109691471Y-108343601D01*
X173370049Y-79090398D02*
X173370048Y-104499509D01*
X108826399Y-100801471D02*
X110490000Y-99137870D01*
X121700021Y-117329934D02*
X120319418Y-117329934D01*
X109691471Y-108343601D02*
X108826399Y-107478529D01*
X110490000Y-99137870D02*
X110490000Y-99060000D01*
X108826399Y-107478529D02*
X108826399Y-100801471D01*
X121830031Y-117459944D02*
X121700021Y-117329934D01*
X148714705Y-117329934D02*
X148584695Y-117459944D01*
X160539623Y-117329934D02*
X148714705Y-117329934D01*
X173370048Y-104499509D02*
X160539623Y-117329934D01*
X162859650Y-68580000D02*
X173370049Y-79090398D01*
X160020000Y-68580000D02*
X162859650Y-68580000D01*
X115570000Y-109220000D02*
X115570000Y-109220000D01*
X115570000Y-99060000D02*
X115570000Y-99060000D01*
X115264748Y-99060000D02*
X115417374Y-99212626D01*
X113030000Y-99060000D02*
X115264748Y-99060000D01*
X160020000Y-71120000D02*
X163419735Y-71120000D01*
X163419735Y-71120000D02*
X171970038Y-79670303D01*
X168719712Y-107169934D02*
X156894791Y-107169935D01*
X148004792Y-116059934D02*
X122409934Y-116059934D01*
X171970038Y-103919608D02*
X168719712Y-107169934D01*
X156894791Y-107169935D02*
X148004792Y-116059934D01*
X116569999Y-110219999D02*
X115570000Y-109220000D01*
X122409934Y-116059934D02*
X116569999Y-110219999D01*
X171970038Y-79670303D02*
X171970038Y-103919608D01*
X147246728Y-104938529D02*
X116368529Y-104938529D01*
X149990010Y-102195248D02*
X147246728Y-104938529D01*
X113893599Y-102463599D02*
X113030000Y-101600000D01*
X145180000Y-66040000D02*
X149990010Y-70850010D01*
X144780000Y-66040000D02*
X145180000Y-66040000D01*
X116368529Y-104938529D02*
X113893599Y-102463599D01*
X149990010Y-70850010D02*
X149990010Y-102195248D01*
X113030000Y-106680000D02*
X139700000Y-106680000D01*
X160020000Y-86360000D02*
X152660020Y-86360000D01*
X147485170Y-106680000D02*
X139700000Y-106680000D01*
X151390020Y-102775150D02*
X147485170Y-106680000D01*
X151390020Y-87630000D02*
X151390020Y-102775150D01*
X152660020Y-86360000D02*
X151390020Y-87630000D01*
X140970000Y-107950000D02*
X140970000Y-107950000D01*
X141110000Y-100330000D02*
X141110000Y-100330000D01*
X141110000Y-100330000D02*
X141110000Y-100330000D01*
X140970000Y-107950000D02*
X140970000Y-107950000D01*
X139700000Y-106680000D02*
X139700000Y-106680004D01*
X139700000Y-106680004D02*
X139969997Y-106950001D01*
X139969997Y-106950001D02*
X140969996Y-107950000D01*
X144780000Y-99060000D02*
X142240000Y-99060000D01*
X141969995Y-99330005D02*
X140969996Y-100330004D01*
X142240000Y-99060000D02*
X141969995Y-99330005D01*
M02*
