G04 #@! TF.GenerationSoftware,KiCad,Pcbnew,(5.1.2)-1*
G04 #@! TF.CreationDate,2019-06-28T17:07:01+09:30*
G04 #@! TF.ProjectId,27(C)256 programmer,32372843-2932-4353-9620-70726f677261,rev?*
G04 #@! TF.SameCoordinates,Original*
G04 #@! TF.FileFunction,Copper,L1,Top*
G04 #@! TF.FilePolarity,Positive*
%FSLAX46Y46*%
G04 Gerber Fmt 4.6, Leading zero omitted, Abs format (unit mm)*
G04 Created by KiCad (PCBNEW (5.1.2)-1) date 2019-06-28 17:07:01*
%MOMM*%
%LPD*%
G04 APERTURE LIST*
%ADD10O,2.400000X1.600000*%
%ADD11R,2.400000X1.600000*%
%ADD12O,1.727200X1.727200*%
%ADD13R,1.727200X1.727200*%
%ADD14C,2.000000*%
%ADD15C,1.200000*%
G04 APERTURE END LIST*
D10*
X160020000Y-66040000D03*
X144780000Y-99060000D03*
X160020000Y-68580000D03*
X144780000Y-96520000D03*
X160020000Y-71120000D03*
X144780000Y-93980000D03*
X160020000Y-73660000D03*
X144780000Y-91440000D03*
X160020000Y-76200000D03*
X144780000Y-88900000D03*
X160020000Y-78740000D03*
X144780000Y-86360000D03*
X160020000Y-81280000D03*
X144780000Y-83820000D03*
X160020000Y-83820000D03*
X144780000Y-81280000D03*
X160020000Y-86360000D03*
X144780000Y-78740000D03*
X160020000Y-88900000D03*
X144780000Y-76200000D03*
X160020000Y-91440000D03*
X144780000Y-73660000D03*
X160020000Y-93980000D03*
X144780000Y-71120000D03*
X160020000Y-96520000D03*
X144780000Y-68580000D03*
X160020000Y-99060000D03*
D11*
X144780000Y-66040000D03*
D12*
X110490000Y-66040000D03*
X113030000Y-66040000D03*
X110490000Y-68580000D03*
X113030000Y-68580000D03*
X110490000Y-71120000D03*
X113030000Y-71120000D03*
X110490000Y-73660000D03*
X113030000Y-73660000D03*
X110490000Y-76200000D03*
X113030000Y-76200000D03*
X110490000Y-78740000D03*
X113030000Y-78740000D03*
X110490000Y-81280000D03*
X113030000Y-81280000D03*
X110490000Y-83820000D03*
X113030000Y-83820000D03*
X110490000Y-86360000D03*
X113030000Y-86360000D03*
X110490000Y-88900000D03*
X113030000Y-88900000D03*
X110490000Y-91440000D03*
X113030000Y-91440000D03*
X110490000Y-93980000D03*
X113030000Y-93980000D03*
X110490000Y-96520000D03*
X113030000Y-96520000D03*
X110490000Y-99060000D03*
X113030000Y-99060000D03*
X110490000Y-101600000D03*
X113030000Y-101600000D03*
X110490000Y-104140000D03*
X113030000Y-104140000D03*
X110490000Y-106680000D03*
D13*
X113030000Y-106680000D03*
D14*
X133350000Y-100330000D03*
X133350000Y-130810000D03*
X127000000Y-68580000D03*
X121920000Y-68580000D03*
X135890000Y-100330000D03*
X135890000Y-129540000D03*
X128270000Y-71120000D03*
X121920000Y-71120000D03*
X138430000Y-100205998D03*
X138430000Y-128270000D03*
X129540000Y-73660000D03*
X121920000Y-73660000D03*
X163830000Y-99060000D03*
X182880000Y-99060000D03*
X130810000Y-76200000D03*
X121920000Y-76200000D03*
X163830000Y-96520000D03*
X181610000Y-96520000D03*
X139700000Y-91440000D03*
X139700000Y-76200000D03*
X163830000Y-93980000D03*
X180339992Y-93980000D03*
X137160000Y-92710000D03*
X137160000Y-76199998D03*
X163830000Y-91440000D03*
X179070000Y-91440000D03*
X134620000Y-76200000D03*
X134620004Y-92710000D03*
X163830000Y-88900000D03*
X177800000Y-88900000D03*
X120650000Y-92710000D03*
X120650000Y-109220000D03*
X163830000Y-81280000D03*
X176530000Y-81280000D03*
X123190000Y-96520000D03*
X123190000Y-109220000D03*
X128270000Y-100205998D03*
X128270000Y-109220000D03*
X125730000Y-100330000D03*
X125730000Y-109220000D03*
X115570000Y-109220000D03*
X115417374Y-99212626D03*
X140969996Y-107950000D03*
X140969996Y-100330004D03*
D15*
X133350000Y-100330000D02*
X133350000Y-130810000D01*
X121920000Y-68580000D02*
X127000000Y-68580000D01*
X135890000Y-100330000D02*
X135890000Y-129540000D01*
X121920000Y-71120000D02*
X128270000Y-71120000D01*
X138430000Y-100205998D02*
X138430000Y-128270000D01*
X121920000Y-73660000D02*
X125730000Y-73660000D01*
X125730000Y-73660000D02*
X129540000Y-73660000D01*
X163830000Y-99060000D02*
X182880000Y-99060000D01*
X121920000Y-76200000D02*
X130810000Y-76200000D01*
X163830000Y-96520000D02*
X181610000Y-96520000D01*
X139700000Y-90025787D02*
X139700000Y-76200000D01*
X139700000Y-91440000D02*
X139700000Y-90025787D01*
X163830000Y-93980000D02*
X180339992Y-93980000D01*
X137160000Y-92710000D02*
X137160000Y-76199998D01*
X163830000Y-91440000D02*
X179070000Y-91440000D01*
X134620000Y-92709996D02*
X134620004Y-92710000D01*
X134620000Y-76200000D02*
X134620000Y-92709996D01*
X163830000Y-88900000D02*
X177800000Y-88900000D01*
X120650000Y-92710000D02*
X120650000Y-109220000D01*
X163830000Y-81280000D02*
X176530000Y-81280000D01*
X123190000Y-96520000D02*
X123190000Y-109220000D01*
X128270000Y-100205998D02*
X128270000Y-109220000D01*
X125730000Y-109220000D02*
X125730000Y-100330000D01*
X115417374Y-109067374D02*
X115570000Y-109220000D01*
X115417374Y-99212626D02*
X115417374Y-109067374D01*
X140969996Y-107950000D02*
X140969996Y-100330004D01*
M02*
