G04 #@! TF.GenerationSoftware,KiCad,Pcbnew,(5.1.2)-1*
G04 #@! TF.CreationDate,2019-06-28T17:07:01+09:30*
G04 #@! TF.ProjectId,27(C)256 programmer,32372843-2932-4353-9620-70726f677261,rev?*
G04 #@! TF.SameCoordinates,Original*
G04 #@! TF.FileFunction,Legend,Top*
G04 #@! TF.FilePolarity,Positive*
%FSLAX46Y46*%
G04 Gerber Fmt 4.6, Leading zero omitted, Abs format (unit mm)*
G04 Created by KiCad (PCBNEW (5.1.2)-1) date 2019-06-28 17:07:01*
%MOMM*%
%LPD*%
G04 APERTURE LIST*
%ADD10C,0.120000*%
%ADD11C,0.150000*%
G04 APERTURE END LIST*
D10*
X158460000Y-64710000D02*
X153400000Y-64710000D01*
X158460000Y-100390000D02*
X158460000Y-64710000D01*
X146340000Y-100390000D02*
X158460000Y-100390000D01*
X146340000Y-64710000D02*
X146340000Y-100390000D01*
X151400000Y-64710000D02*
X146340000Y-64710000D01*
X153400000Y-64710000D02*
G75*
G02X151400000Y-64710000I-1000000J0D01*
G01*
X108900000Y-60690000D02*
X108900000Y-112030000D01*
X108900000Y-60690000D02*
X99550000Y-60690000D01*
X108900000Y-84110000D02*
X99550000Y-84110000D01*
X108900000Y-88610000D02*
X99550000Y-88610000D01*
X108900000Y-112030000D02*
X99550000Y-112030000D01*
X99550000Y-112030000D02*
X99550000Y-60690000D01*
X113030000Y-107950000D02*
X114300000Y-107950000D01*
X114300000Y-107950000D02*
X114300000Y-106680000D01*
D11*
X151638095Y-63162380D02*
X151638095Y-63971904D01*
X151685714Y-64067142D01*
X151733333Y-64114761D01*
X151828571Y-64162380D01*
X152019047Y-64162380D01*
X152114285Y-64114761D01*
X152161904Y-64067142D01*
X152209523Y-63971904D01*
X152209523Y-63162380D01*
X153209523Y-64162380D02*
X152638095Y-64162380D01*
X152923809Y-64162380D02*
X152923809Y-63162380D01*
X152828571Y-63305238D01*
X152733333Y-63400476D01*
X152638095Y-63448095D01*
X106591666Y-112482380D02*
X106591666Y-113196666D01*
X106544047Y-113339523D01*
X106448809Y-113434761D01*
X106305952Y-113482380D01*
X106210714Y-113482380D01*
X107591666Y-113482380D02*
X107020238Y-113482380D01*
X107305952Y-113482380D02*
X107305952Y-112482380D01*
X107210714Y-112625238D01*
X107115476Y-112720476D01*
X107020238Y-112768095D01*
M02*
