M48
; DRILL file {KiCad (5.1.2)-1} date 28/06/2019 17:06:58
; FORMAT={3:3/ absolute / metric / suppress leading zeros}
; #@! TF.CreationDate,2019-06-28T17:06:58+09:30
; #@! TF.GenerationSoftware,Kicad,Pcbnew,(5.1.2)-1
; #@! TF.FileFunction,Plated,1,2,PTH
FMAT,2
METRIC,TZ
T1C0.800
T2C1.016
%
G90
G05
T1
X115417Y-99213
X115570Y-109220
X120650Y-92710
X120650Y-109220
X121920Y-68580
X121920Y-71120
X121920Y-73660
X121920Y-76200
X123190Y-96520
X123190Y-109220
X125730Y-100330
X125730Y-109220
X127000Y-68580
X128270Y-71120
X128270Y-100206
X128270Y-109220
X129540Y-73660
X130810Y-76200
X133350Y-100330
X133350Y-130810
X134620Y-76200
X134620Y-92710
X135890Y-100330
X135890Y-129540
X137160Y-76200
X137160Y-92710
X138430Y-100206
X138430Y-128270
X139700Y-76200
X139700Y-91440
X140970Y-100330
X140970Y-107950
X163830Y-81280
X163830Y-88900
X163830Y-91440
X163830Y-93980
X163830Y-96520
X163830Y-99060
X176530Y-81280
X177800Y-88900
X179070Y-91440
X180340Y-93980
X181610Y-96520
X182880Y-99060
X144780Y-66040
X144780Y-68580
X144780Y-71120
X144780Y-73660
X144780Y-76200
X144780Y-78740
X144780Y-81280
X144780Y-83820
X144780Y-86360
X144780Y-88900
X144780Y-91440
X144780Y-93980
X144780Y-96520
X144780Y-99060
X160020Y-66040
X160020Y-68580
X160020Y-71120
X160020Y-73660
X160020Y-76200
X160020Y-78740
X160020Y-81280
X160020Y-83820
X160020Y-86360
X160020Y-88900
X160020Y-91440
X160020Y-93980
X160020Y-96520
X160020Y-99060
T2
X110490Y-66040
X110490Y-68580
X110490Y-71120
X110490Y-73660
X110490Y-76200
X110490Y-78740
X110490Y-81280
X110490Y-83820
X110490Y-86360
X110490Y-88900
X110490Y-91440
X110490Y-93980
X110490Y-96520
X110490Y-99060
X110490Y-101600
X110490Y-104140
X110490Y-106680
X113030Y-66040
X113030Y-68580
X113030Y-71120
X113030Y-73660
X113030Y-76200
X113030Y-78740
X113030Y-81280
X113030Y-83820
X113030Y-86360
X113030Y-88900
X113030Y-91440
X113030Y-93980
X113030Y-96520
X113030Y-99060
X113030Y-101600
X113030Y-104140
X113030Y-106680
T0
M30
