M48
; DRILL file {KiCad (5.1.2)-1} date 24/06/2019 21:27:00
; FORMAT={3:3/ absolute / metric / suppress leading zeros}
; #@! TF.CreationDate,2019-06-24T21:27:00+09:30
; #@! TF.GenerationSoftware,Kicad,Pcbnew,(5.1.2)-1
; #@! TF.FileFunction,Plated,1,2,PTH
FMAT,2
METRIC,TZ
T1C0.800
T2C1.000
T3C1.016
%
G90
G05
T1
X133350Y-87630
X139700Y-87630
X147320Y-57150
X147320Y-64770
X162560Y-50800
X162560Y-63500
X165100Y-64770
X167640Y-62230
X171450Y-59790
X171450Y-50390
X172720Y-62230
X172720Y-64770
X180340Y-46990
X180340Y-62230
X182880Y-44450
X182880Y-62230
X185420Y-49530
X185420Y-62370
X190500Y-95250
X193040Y-72390
X198120Y-95250
X207010Y-72390
X149860Y-67310
X149860Y-74930
X152400Y-67310
X152400Y-74930
X154940Y-67310
X154940Y-74930
X157480Y-67310
X157480Y-74930
X160020Y-67310
X160020Y-74930
X162560Y-67310
X162560Y-74930
X165100Y-67310
X165100Y-74930
X167640Y-67310
X167640Y-74930
X172720Y-67310
X172720Y-74930
X175260Y-67310
X175260Y-74930
X177800Y-67310
X177800Y-74930
X180340Y-67310
X180340Y-74930
X182880Y-67310
X182880Y-74930
X185420Y-67310
X185420Y-74930
X187960Y-67310
X187960Y-74930
X190500Y-67310
X190500Y-74930
X137160Y-46990
X137160Y-95250
X139700Y-46990
X139700Y-95250
X142240Y-46990
X142240Y-95250
X144780Y-46990
X144780Y-95250
X147320Y-46990
X147320Y-95250
X149860Y-46990
X149860Y-95250
X152400Y-95250
X154940Y-46990
X154940Y-95250
X157480Y-46990
X159000Y-95250
X160020Y-46990
X161540Y-95250
X162560Y-46990
X164080Y-95250
X165100Y-46990
X166620Y-95250
X167640Y-46990
X169160Y-95250
X170180Y-46990
X171700Y-95250
X172720Y-46990
X174240Y-95250
X176780Y-95250
X179320Y-95250
X181860Y-95250
T2
X205740Y-91440
X205740Y-93980
X205740Y-96520
T3
X148590Y-81280
X148590Y-83820
X151130Y-81280
X151130Y-83820
X153670Y-81280
X153670Y-83820
X156210Y-81280
X156210Y-83820
X158750Y-81280
X158750Y-83820
X161290Y-81280
X161290Y-83820
X163830Y-81280
X163830Y-83820
X166370Y-81280
X166370Y-83820
X168910Y-81280
X168910Y-83820
X171450Y-81280
X171450Y-83820
X173990Y-81280
X173990Y-83820
X176530Y-81280
X176530Y-83820
X179070Y-81280
X179070Y-83820
X181610Y-81280
X181610Y-83820
X184150Y-81280
X184150Y-83820
X186690Y-81280
X186690Y-83820
X189230Y-81280
X189230Y-83820
T0
M30
