G04 #@! TF.GenerationSoftware,KiCad,Pcbnew,(5.1.2)-1*
G04 #@! TF.CreationDate,2019-06-24T21:27:01+09:30*
G04 #@! TF.ProjectId,EEPROM_Programmer,45455052-4f4d-45f5-9072-6f6772616d6d,rev?*
G04 #@! TF.SameCoordinates,Original*
G04 #@! TF.FileFunction,Legend,Top*
G04 #@! TF.FilePolarity,Positive*
%FSLAX45Y45*%
G04 Gerber Fmt 4.5, Leading zero omitted, Abs format (unit mm)*
G04 Created by KiCad (PCBNEW (5.1.2)-1) date 2019-06-24 21:27:01*
%MOMM*%
%LPD*%
G04 APERTURE LIST*
%ADD10C,0.120000*%
%ADD11C,0.150000*%
G04 APERTURE END LIST*
D10*
X17133000Y-6587000D02*
X17133000Y-7637000D01*
X19189000Y-6587000D02*
X17133000Y-6587000D01*
X19189000Y-7637000D02*
X19189000Y-6587000D01*
X17133000Y-7637000D02*
X19189000Y-7637000D01*
X17139000Y-6887000D02*
X17139000Y-7012000D01*
X19183000Y-6887000D02*
X17139000Y-6887000D01*
X19183000Y-7337000D02*
X19183000Y-6887000D01*
X17139000Y-7337000D02*
X19183000Y-7337000D01*
X17139000Y-7212000D02*
X17139000Y-7337000D01*
X17139000Y-7012000D02*
G75*
G02X17139000Y-7212000I0J-100000D01*
G01*
X20441000Y-9011000D02*
X20574000Y-9011000D01*
X20441000Y-9144000D02*
X20441000Y-9011000D01*
X20441000Y-9271000D02*
X20707000Y-9271000D01*
X20707000Y-9271000D02*
X20707000Y-9785000D01*
X20441000Y-9271000D02*
X20441000Y-9785000D01*
X20441000Y-9785000D02*
X20707000Y-9785000D01*
X19458000Y-8722500D02*
X14324000Y-8722500D01*
X14324000Y-8722500D02*
X14324000Y-7787500D01*
X14324000Y-7787500D02*
X19458000Y-7787500D01*
X19458000Y-7787500D02*
X19458000Y-8722500D01*
X19483000Y-7762500D02*
X19229000Y-7762500D01*
X19483000Y-7762500D02*
X19483000Y-8016500D01*
X14847000Y-6587000D02*
X14847000Y-7637000D01*
X16903000Y-6587000D02*
X14847000Y-6587000D01*
X16903000Y-7637000D02*
X16903000Y-6587000D01*
X14847000Y-7637000D02*
X16903000Y-7637000D01*
X14853000Y-6887000D02*
X14853000Y-7012000D01*
X16897000Y-6887000D02*
X14853000Y-6887000D01*
X16897000Y-7337000D02*
X16897000Y-6887000D01*
X14853000Y-7337000D02*
X16897000Y-7337000D01*
X14853000Y-7212000D02*
X14853000Y-7337000D01*
X14853000Y-7012000D02*
G75*
G02X14853000Y-7212000I0J-100000D01*
G01*
D11*
X16984238Y-7188190D02*
X17065190Y-7188190D01*
X17074714Y-7183428D01*
X17079476Y-7178667D01*
X17084238Y-7169143D01*
X17084238Y-7150095D01*
X17079476Y-7140571D01*
X17074714Y-7135809D01*
X17065190Y-7131048D01*
X16984238Y-7131048D01*
X16993762Y-7088190D02*
X16989000Y-7083428D01*
X16984238Y-7073905D01*
X16984238Y-7050095D01*
X16989000Y-7040571D01*
X16993762Y-7035809D01*
X17003286Y-7031048D01*
X17012810Y-7031048D01*
X17027095Y-7035809D01*
X17084238Y-7092952D01*
X17084238Y-7031048D01*
X20540667Y-8856238D02*
X20540667Y-8927667D01*
X20535905Y-8941952D01*
X20526381Y-8951476D01*
X20512095Y-8956238D01*
X20502571Y-8956238D01*
X20583524Y-8865762D02*
X20588286Y-8861000D01*
X20597810Y-8856238D01*
X20621619Y-8856238D01*
X20631143Y-8861000D01*
X20635905Y-8865762D01*
X20640667Y-8875286D01*
X20640667Y-8884810D01*
X20635905Y-8899095D01*
X20578762Y-8956238D01*
X20640667Y-8956238D01*
X19528638Y-8288333D02*
X19600067Y-8288333D01*
X19614352Y-8293095D01*
X19623876Y-8302619D01*
X19628638Y-8316905D01*
X19628638Y-8326428D01*
X19628638Y-8188333D02*
X19628638Y-8245476D01*
X19628638Y-8216905D02*
X19528638Y-8216905D01*
X19542924Y-8226428D01*
X19552448Y-8235952D01*
X19557210Y-8245476D01*
X15312238Y-7188190D02*
X15393190Y-7188190D01*
X15402714Y-7183428D01*
X15407476Y-7178667D01*
X15412238Y-7169143D01*
X15412238Y-7150095D01*
X15407476Y-7140571D01*
X15402714Y-7135809D01*
X15393190Y-7131048D01*
X15312238Y-7131048D01*
X15312238Y-7092952D02*
X15312238Y-7031048D01*
X15350333Y-7064381D01*
X15350333Y-7050095D01*
X15355095Y-7040571D01*
X15359857Y-7035809D01*
X15369381Y-7031048D01*
X15393190Y-7031048D01*
X15402714Y-7035809D01*
X15407476Y-7040571D01*
X15412238Y-7050095D01*
X15412238Y-7078667D01*
X15407476Y-7088190D01*
X15402714Y-7092952D01*
M02*
