G04 #@! TF.GenerationSoftware,KiCad,Pcbnew,(5.1.2)-1*
G04 #@! TF.CreationDate,2019-06-24T20:38:36+09:30*
G04 #@! TF.ProjectId,EEPROM_Programmer,45455052-4f4d-45f5-9072-6f6772616d6d,rev?*
G04 #@! TF.SameCoordinates,Original*
G04 #@! TF.FileFunction,Soldermask,Top*
G04 #@! TF.FilePolarity,Negative*
%FSLAX45Y45*%
G04 Gerber Fmt 4.5, Leading zero omitted, Abs format (unit mm)*
G04 Created by KiCad (PCBNEW (5.1.2)-1) date 2019-06-24 20:38:36*
%MOMM*%
%LPD*%
G04 APERTURE LIST*
%ADD10C,0.100000*%
G04 APERTURE END LIST*
D10*
G36*
X18202682Y-9441131D02*
G01*
X18218724Y-9445998D01*
X18231991Y-9453089D01*
X18233508Y-9453900D01*
X18246466Y-9464534D01*
X18257100Y-9477492D01*
X18257101Y-9477492D01*
X18265002Y-9492276D01*
X18269869Y-9508318D01*
X18271512Y-9525000D01*
X18269869Y-9541682D01*
X18265002Y-9557724D01*
X18257911Y-9570991D01*
X18257100Y-9572508D01*
X18246466Y-9585466D01*
X18233508Y-9596100D01*
X18233508Y-9596101D01*
X18218724Y-9604002D01*
X18202682Y-9608869D01*
X18190180Y-9610100D01*
X18181820Y-9610100D01*
X18169318Y-9608869D01*
X18153276Y-9604002D01*
X18138492Y-9596101D01*
X18138492Y-9596100D01*
X18125534Y-9585466D01*
X18114900Y-9572508D01*
X18114089Y-9570991D01*
X18106998Y-9557724D01*
X18102131Y-9541682D01*
X18100488Y-9525000D01*
X18102131Y-9508318D01*
X18106998Y-9492276D01*
X18114900Y-9477492D01*
X18114900Y-9477492D01*
X18125534Y-9464534D01*
X18138492Y-9453900D01*
X18140009Y-9453089D01*
X18153276Y-9445998D01*
X18169318Y-9441131D01*
X18181820Y-9439900D01*
X18190180Y-9439900D01*
X18202682Y-9441131D01*
X18202682Y-9441131D01*
G37*
G36*
X16424682Y-9441131D02*
G01*
X16440724Y-9445998D01*
X16453991Y-9453089D01*
X16455508Y-9453900D01*
X16468466Y-9464534D01*
X16479100Y-9477492D01*
X16479100Y-9477492D01*
X16487002Y-9492276D01*
X16491869Y-9508318D01*
X16493512Y-9525000D01*
X16491869Y-9541682D01*
X16487002Y-9557724D01*
X16479911Y-9570991D01*
X16479100Y-9572508D01*
X16468466Y-9585466D01*
X16455508Y-9596100D01*
X16455508Y-9596101D01*
X16440724Y-9604002D01*
X16424682Y-9608869D01*
X16412180Y-9610100D01*
X16403820Y-9610100D01*
X16391318Y-9608869D01*
X16375276Y-9604002D01*
X16360492Y-9596101D01*
X16360492Y-9596100D01*
X16347534Y-9585466D01*
X16336900Y-9572508D01*
X16336089Y-9570991D01*
X16328998Y-9557724D01*
X16324131Y-9541682D01*
X16322488Y-9525000D01*
X16324131Y-9508318D01*
X16328998Y-9492276D01*
X16336899Y-9477492D01*
X16336900Y-9477492D01*
X16347534Y-9464534D01*
X16360492Y-9453900D01*
X16362009Y-9453089D01*
X16375276Y-9445998D01*
X16391318Y-9441131D01*
X16403820Y-9439900D01*
X16412180Y-9439900D01*
X16424682Y-9441131D01*
X16424682Y-9441131D01*
G37*
G36*
X13986682Y-9441131D02*
G01*
X14002724Y-9445998D01*
X14015991Y-9453089D01*
X14017508Y-9453900D01*
X14030466Y-9464534D01*
X14041100Y-9477492D01*
X14041100Y-9477492D01*
X14049002Y-9492276D01*
X14053869Y-9508318D01*
X14055512Y-9525000D01*
X14053869Y-9541682D01*
X14049002Y-9557724D01*
X14041911Y-9570991D01*
X14041100Y-9572508D01*
X14030466Y-9585466D01*
X14017508Y-9596100D01*
X14017508Y-9596101D01*
X14002724Y-9604002D01*
X13986682Y-9608869D01*
X13974180Y-9610100D01*
X13965820Y-9610100D01*
X13953318Y-9608869D01*
X13937276Y-9604002D01*
X13922492Y-9596101D01*
X13922492Y-9596100D01*
X13909534Y-9585466D01*
X13898900Y-9572508D01*
X13898089Y-9570991D01*
X13890998Y-9557724D01*
X13886131Y-9541682D01*
X13884488Y-9525000D01*
X13886131Y-9508318D01*
X13890998Y-9492276D01*
X13898899Y-9477492D01*
X13898900Y-9477492D01*
X13909534Y-9464534D01*
X13922492Y-9453900D01*
X13924009Y-9453089D01*
X13937276Y-9445998D01*
X13953318Y-9441131D01*
X13965820Y-9439900D01*
X13974180Y-9439900D01*
X13986682Y-9441131D01*
X13986682Y-9441131D01*
G37*
G36*
X13732682Y-9441131D02*
G01*
X13748724Y-9445998D01*
X13761991Y-9453089D01*
X13763508Y-9453900D01*
X13776466Y-9464534D01*
X13787100Y-9477492D01*
X13787100Y-9477492D01*
X13795002Y-9492276D01*
X13799869Y-9508318D01*
X13801512Y-9525000D01*
X13799869Y-9541682D01*
X13795002Y-9557724D01*
X13787911Y-9570991D01*
X13787100Y-9572508D01*
X13776466Y-9585466D01*
X13763508Y-9596100D01*
X13763508Y-9596101D01*
X13748724Y-9604002D01*
X13732682Y-9608869D01*
X13720180Y-9610100D01*
X13711820Y-9610100D01*
X13699318Y-9608869D01*
X13683276Y-9604002D01*
X13668492Y-9596101D01*
X13668492Y-9596100D01*
X13655534Y-9585466D01*
X13644900Y-9572508D01*
X13644089Y-9570991D01*
X13636998Y-9557724D01*
X13632131Y-9541682D01*
X13630488Y-9525000D01*
X13632131Y-9508318D01*
X13636998Y-9492276D01*
X13644899Y-9477492D01*
X13644900Y-9477492D01*
X13655534Y-9464534D01*
X13668492Y-9453900D01*
X13670009Y-9453089D01*
X13683276Y-9445998D01*
X13699318Y-9441131D01*
X13711820Y-9439900D01*
X13720180Y-9439900D01*
X13732682Y-9441131D01*
X13732682Y-9441131D01*
G37*
G36*
X17694682Y-9441131D02*
G01*
X17710724Y-9445998D01*
X17723991Y-9453089D01*
X17725508Y-9453900D01*
X17738466Y-9464534D01*
X17749100Y-9477492D01*
X17749101Y-9477492D01*
X17757002Y-9492276D01*
X17761869Y-9508318D01*
X17763512Y-9525000D01*
X17761869Y-9541682D01*
X17757002Y-9557724D01*
X17749911Y-9570991D01*
X17749100Y-9572508D01*
X17738466Y-9585466D01*
X17725508Y-9596100D01*
X17725508Y-9596101D01*
X17710724Y-9604002D01*
X17694682Y-9608869D01*
X17682180Y-9610100D01*
X17673820Y-9610100D01*
X17661318Y-9608869D01*
X17645276Y-9604002D01*
X17630492Y-9596101D01*
X17630492Y-9596100D01*
X17617534Y-9585466D01*
X17606900Y-9572508D01*
X17606089Y-9570991D01*
X17598998Y-9557724D01*
X17594131Y-9541682D01*
X17592488Y-9525000D01*
X17594131Y-9508318D01*
X17598998Y-9492276D01*
X17606900Y-9477492D01*
X17606900Y-9477492D01*
X17617534Y-9464534D01*
X17630492Y-9453900D01*
X17632009Y-9453089D01*
X17645276Y-9445998D01*
X17661318Y-9441131D01*
X17673820Y-9439900D01*
X17682180Y-9439900D01*
X17694682Y-9441131D01*
X17694682Y-9441131D01*
G37*
G36*
X17440682Y-9441131D02*
G01*
X17456724Y-9445998D01*
X17469991Y-9453089D01*
X17471508Y-9453900D01*
X17484466Y-9464534D01*
X17495100Y-9477492D01*
X17495101Y-9477492D01*
X17503002Y-9492276D01*
X17507869Y-9508318D01*
X17509512Y-9525000D01*
X17507869Y-9541682D01*
X17503002Y-9557724D01*
X17495911Y-9570991D01*
X17495100Y-9572508D01*
X17484466Y-9585466D01*
X17471508Y-9596100D01*
X17471508Y-9596101D01*
X17456724Y-9604002D01*
X17440682Y-9608869D01*
X17428180Y-9610100D01*
X17419820Y-9610100D01*
X17407318Y-9608869D01*
X17391276Y-9604002D01*
X17376492Y-9596101D01*
X17376492Y-9596100D01*
X17363534Y-9585466D01*
X17352900Y-9572508D01*
X17352089Y-9570991D01*
X17344998Y-9557724D01*
X17340131Y-9541682D01*
X17338488Y-9525000D01*
X17340131Y-9508318D01*
X17344998Y-9492276D01*
X17352900Y-9477492D01*
X17352900Y-9477492D01*
X17363534Y-9464534D01*
X17376492Y-9453900D01*
X17378009Y-9453089D01*
X17391276Y-9445998D01*
X17407318Y-9441131D01*
X17419820Y-9439900D01*
X17428180Y-9439900D01*
X17440682Y-9441131D01*
X17440682Y-9441131D01*
G37*
G36*
X17186682Y-9441131D02*
G01*
X17202724Y-9445998D01*
X17215991Y-9453089D01*
X17217508Y-9453900D01*
X17230466Y-9464534D01*
X17241100Y-9477492D01*
X17241101Y-9477492D01*
X17249002Y-9492276D01*
X17253869Y-9508318D01*
X17255512Y-9525000D01*
X17253869Y-9541682D01*
X17249002Y-9557724D01*
X17241911Y-9570991D01*
X17241100Y-9572508D01*
X17230466Y-9585466D01*
X17217508Y-9596100D01*
X17217508Y-9596101D01*
X17202724Y-9604002D01*
X17186682Y-9608869D01*
X17174180Y-9610100D01*
X17165820Y-9610100D01*
X17153318Y-9608869D01*
X17137276Y-9604002D01*
X17122492Y-9596101D01*
X17122492Y-9596100D01*
X17109534Y-9585466D01*
X17098900Y-9572508D01*
X17098089Y-9570991D01*
X17090998Y-9557724D01*
X17086131Y-9541682D01*
X17084488Y-9525000D01*
X17086131Y-9508318D01*
X17090998Y-9492276D01*
X17098900Y-9477492D01*
X17098900Y-9477492D01*
X17109534Y-9464534D01*
X17122492Y-9453900D01*
X17124009Y-9453089D01*
X17137276Y-9445998D01*
X17153318Y-9441131D01*
X17165820Y-9439900D01*
X17174180Y-9439900D01*
X17186682Y-9441131D01*
X17186682Y-9441131D01*
G37*
G36*
X16932682Y-9441131D02*
G01*
X16948724Y-9445998D01*
X16961991Y-9453089D01*
X16963508Y-9453900D01*
X16976466Y-9464534D01*
X16987100Y-9477492D01*
X16987101Y-9477492D01*
X16995002Y-9492276D01*
X16999869Y-9508318D01*
X17001512Y-9525000D01*
X16999869Y-9541682D01*
X16995002Y-9557724D01*
X16987911Y-9570991D01*
X16987100Y-9572508D01*
X16976466Y-9585466D01*
X16963508Y-9596100D01*
X16963508Y-9596101D01*
X16948724Y-9604002D01*
X16932682Y-9608869D01*
X16920180Y-9610100D01*
X16911820Y-9610100D01*
X16899318Y-9608869D01*
X16883276Y-9604002D01*
X16868492Y-9596101D01*
X16868492Y-9596100D01*
X16855534Y-9585466D01*
X16844900Y-9572508D01*
X16844089Y-9570991D01*
X16836998Y-9557724D01*
X16832131Y-9541682D01*
X16830488Y-9525000D01*
X16832131Y-9508318D01*
X16836998Y-9492276D01*
X16844900Y-9477492D01*
X16844900Y-9477492D01*
X16855534Y-9464534D01*
X16868492Y-9453900D01*
X16870009Y-9453089D01*
X16883276Y-9445998D01*
X16899318Y-9441131D01*
X16911820Y-9439900D01*
X16920180Y-9439900D01*
X16932682Y-9441131D01*
X16932682Y-9441131D01*
G37*
G36*
X16678682Y-9441131D02*
G01*
X16694724Y-9445998D01*
X16707991Y-9453089D01*
X16709508Y-9453900D01*
X16722466Y-9464534D01*
X16733100Y-9477492D01*
X16733100Y-9477492D01*
X16741002Y-9492276D01*
X16745869Y-9508318D01*
X16747512Y-9525000D01*
X16745869Y-9541682D01*
X16741002Y-9557724D01*
X16733911Y-9570991D01*
X16733100Y-9572508D01*
X16722466Y-9585466D01*
X16709508Y-9596100D01*
X16709508Y-9596101D01*
X16694724Y-9604002D01*
X16678682Y-9608869D01*
X16666180Y-9610100D01*
X16657820Y-9610100D01*
X16645318Y-9608869D01*
X16629276Y-9604002D01*
X16614492Y-9596101D01*
X16614492Y-9596100D01*
X16601534Y-9585466D01*
X16590900Y-9572508D01*
X16590089Y-9570991D01*
X16582998Y-9557724D01*
X16578131Y-9541682D01*
X16576488Y-9525000D01*
X16578131Y-9508318D01*
X16582998Y-9492276D01*
X16590899Y-9477492D01*
X16590900Y-9477492D01*
X16601534Y-9464534D01*
X16614492Y-9453900D01*
X16616009Y-9453089D01*
X16629276Y-9445998D01*
X16645318Y-9441131D01*
X16657820Y-9439900D01*
X16666180Y-9439900D01*
X16678682Y-9441131D01*
X16678682Y-9441131D01*
G37*
G36*
X15916682Y-9441131D02*
G01*
X15932724Y-9445998D01*
X15945991Y-9453089D01*
X15947508Y-9453900D01*
X15960466Y-9464534D01*
X15971100Y-9477492D01*
X15971100Y-9477492D01*
X15979002Y-9492276D01*
X15983869Y-9508318D01*
X15985512Y-9525000D01*
X15983869Y-9541682D01*
X15979002Y-9557724D01*
X15971911Y-9570991D01*
X15971100Y-9572508D01*
X15960466Y-9585466D01*
X15947508Y-9596100D01*
X15947508Y-9596101D01*
X15932724Y-9604002D01*
X15916682Y-9608869D01*
X15904180Y-9610100D01*
X15895820Y-9610100D01*
X15883318Y-9608869D01*
X15867276Y-9604002D01*
X15852492Y-9596101D01*
X15852492Y-9596100D01*
X15839534Y-9585466D01*
X15828900Y-9572508D01*
X15828089Y-9570991D01*
X15820998Y-9557724D01*
X15816131Y-9541682D01*
X15814488Y-9525000D01*
X15816131Y-9508318D01*
X15820998Y-9492276D01*
X15828899Y-9477492D01*
X15828900Y-9477492D01*
X15839534Y-9464534D01*
X15852492Y-9453900D01*
X15854009Y-9453089D01*
X15867276Y-9445998D01*
X15883318Y-9441131D01*
X15895820Y-9439900D01*
X15904180Y-9439900D01*
X15916682Y-9441131D01*
X15916682Y-9441131D01*
G37*
G36*
X15510682Y-9441131D02*
G01*
X15526724Y-9445998D01*
X15539991Y-9453089D01*
X15541508Y-9453900D01*
X15554466Y-9464534D01*
X15565100Y-9477492D01*
X15565100Y-9477492D01*
X15573002Y-9492276D01*
X15577869Y-9508318D01*
X15579512Y-9525000D01*
X15577869Y-9541682D01*
X15573002Y-9557724D01*
X15565911Y-9570991D01*
X15565100Y-9572508D01*
X15554466Y-9585466D01*
X15541508Y-9596100D01*
X15541508Y-9596101D01*
X15526724Y-9604002D01*
X15510682Y-9608869D01*
X15498180Y-9610100D01*
X15489820Y-9610100D01*
X15477318Y-9608869D01*
X15461276Y-9604002D01*
X15446492Y-9596101D01*
X15446492Y-9596100D01*
X15433534Y-9585466D01*
X15422900Y-9572508D01*
X15422089Y-9570991D01*
X15414998Y-9557724D01*
X15410131Y-9541682D01*
X15408488Y-9525000D01*
X15410131Y-9508318D01*
X15414998Y-9492276D01*
X15422899Y-9477492D01*
X15422900Y-9477492D01*
X15433534Y-9464534D01*
X15446492Y-9453900D01*
X15448009Y-9453089D01*
X15461276Y-9445998D01*
X15477318Y-9441131D01*
X15489820Y-9439900D01*
X15498180Y-9439900D01*
X15510682Y-9441131D01*
X15510682Y-9441131D01*
G37*
G36*
X15256682Y-9441131D02*
G01*
X15272724Y-9445998D01*
X15285991Y-9453089D01*
X15287508Y-9453900D01*
X15300466Y-9464534D01*
X15311100Y-9477492D01*
X15311100Y-9477492D01*
X15319002Y-9492276D01*
X15323869Y-9508318D01*
X15325512Y-9525000D01*
X15323869Y-9541682D01*
X15319002Y-9557724D01*
X15311911Y-9570991D01*
X15311100Y-9572508D01*
X15300466Y-9585466D01*
X15287508Y-9596100D01*
X15287508Y-9596101D01*
X15272724Y-9604002D01*
X15256682Y-9608869D01*
X15244180Y-9610100D01*
X15235820Y-9610100D01*
X15223318Y-9608869D01*
X15207276Y-9604002D01*
X15192492Y-9596101D01*
X15192492Y-9596100D01*
X15179534Y-9585466D01*
X15168900Y-9572508D01*
X15168089Y-9570991D01*
X15160998Y-9557724D01*
X15156131Y-9541682D01*
X15154488Y-9525000D01*
X15156131Y-9508318D01*
X15160998Y-9492276D01*
X15168899Y-9477492D01*
X15168900Y-9477492D01*
X15179534Y-9464534D01*
X15192492Y-9453900D01*
X15194009Y-9453089D01*
X15207276Y-9445998D01*
X15223318Y-9441131D01*
X15235820Y-9439900D01*
X15244180Y-9439900D01*
X15256682Y-9441131D01*
X15256682Y-9441131D01*
G37*
G36*
X15002682Y-9441131D02*
G01*
X15018724Y-9445998D01*
X15031991Y-9453089D01*
X15033508Y-9453900D01*
X15046466Y-9464534D01*
X15057100Y-9477492D01*
X15057100Y-9477492D01*
X15065002Y-9492276D01*
X15069869Y-9508318D01*
X15071512Y-9525000D01*
X15069869Y-9541682D01*
X15065002Y-9557724D01*
X15057911Y-9570991D01*
X15057100Y-9572508D01*
X15046466Y-9585466D01*
X15033508Y-9596100D01*
X15033508Y-9596101D01*
X15018724Y-9604002D01*
X15002682Y-9608869D01*
X14990180Y-9610100D01*
X14981820Y-9610100D01*
X14969318Y-9608869D01*
X14953276Y-9604002D01*
X14938492Y-9596101D01*
X14938492Y-9596100D01*
X14925534Y-9585466D01*
X14914900Y-9572508D01*
X14914089Y-9570991D01*
X14906998Y-9557724D01*
X14902131Y-9541682D01*
X14900488Y-9525000D01*
X14902131Y-9508318D01*
X14906998Y-9492276D01*
X14914899Y-9477492D01*
X14914900Y-9477492D01*
X14925534Y-9464534D01*
X14938492Y-9453900D01*
X14940009Y-9453089D01*
X14953276Y-9445998D01*
X14969318Y-9441131D01*
X14981820Y-9439900D01*
X14990180Y-9439900D01*
X15002682Y-9441131D01*
X15002682Y-9441131D01*
G37*
G36*
X14748682Y-9441131D02*
G01*
X14764724Y-9445998D01*
X14777991Y-9453089D01*
X14779508Y-9453900D01*
X14792466Y-9464534D01*
X14803100Y-9477492D01*
X14803100Y-9477492D01*
X14811002Y-9492276D01*
X14815869Y-9508318D01*
X14817512Y-9525000D01*
X14815869Y-9541682D01*
X14811002Y-9557724D01*
X14803911Y-9570991D01*
X14803100Y-9572508D01*
X14792466Y-9585466D01*
X14779508Y-9596100D01*
X14779508Y-9596101D01*
X14764724Y-9604002D01*
X14748682Y-9608869D01*
X14736180Y-9610100D01*
X14727820Y-9610100D01*
X14715318Y-9608869D01*
X14699276Y-9604002D01*
X14684492Y-9596101D01*
X14684492Y-9596100D01*
X14671534Y-9585466D01*
X14660900Y-9572508D01*
X14660089Y-9570991D01*
X14652998Y-9557724D01*
X14648131Y-9541682D01*
X14646488Y-9525000D01*
X14648131Y-9508318D01*
X14652998Y-9492276D01*
X14660899Y-9477492D01*
X14660900Y-9477492D01*
X14671534Y-9464534D01*
X14684492Y-9453900D01*
X14686009Y-9453089D01*
X14699276Y-9445998D01*
X14715318Y-9441131D01*
X14727820Y-9439900D01*
X14736180Y-9439900D01*
X14748682Y-9441131D01*
X14748682Y-9441131D01*
G37*
G36*
X14494682Y-9441131D02*
G01*
X14510724Y-9445998D01*
X14523991Y-9453089D01*
X14525508Y-9453900D01*
X14538466Y-9464534D01*
X14549100Y-9477492D01*
X14549100Y-9477492D01*
X14557002Y-9492276D01*
X14561869Y-9508318D01*
X14563512Y-9525000D01*
X14561869Y-9541682D01*
X14557002Y-9557724D01*
X14549911Y-9570991D01*
X14549100Y-9572508D01*
X14538466Y-9585466D01*
X14525508Y-9596100D01*
X14525508Y-9596101D01*
X14510724Y-9604002D01*
X14494682Y-9608869D01*
X14482180Y-9610100D01*
X14473820Y-9610100D01*
X14461318Y-9608869D01*
X14445276Y-9604002D01*
X14430492Y-9596101D01*
X14430492Y-9596100D01*
X14417534Y-9585466D01*
X14406900Y-9572508D01*
X14406089Y-9570991D01*
X14398998Y-9557724D01*
X14394131Y-9541682D01*
X14392488Y-9525000D01*
X14394131Y-9508318D01*
X14398998Y-9492276D01*
X14406899Y-9477492D01*
X14406900Y-9477492D01*
X14417534Y-9464534D01*
X14430492Y-9453900D01*
X14432009Y-9453089D01*
X14445276Y-9445998D01*
X14461318Y-9441131D01*
X14473820Y-9439900D01*
X14482180Y-9439900D01*
X14494682Y-9441131D01*
X14494682Y-9441131D01*
G37*
G36*
X14240682Y-9441131D02*
G01*
X14256724Y-9445998D01*
X14269991Y-9453089D01*
X14271508Y-9453900D01*
X14284466Y-9464534D01*
X14295100Y-9477492D01*
X14295100Y-9477492D01*
X14303002Y-9492276D01*
X14307869Y-9508318D01*
X14309512Y-9525000D01*
X14307869Y-9541682D01*
X14303002Y-9557724D01*
X14295911Y-9570991D01*
X14295100Y-9572508D01*
X14284466Y-9585466D01*
X14271508Y-9596100D01*
X14271508Y-9596101D01*
X14256724Y-9604002D01*
X14240682Y-9608869D01*
X14228180Y-9610100D01*
X14219820Y-9610100D01*
X14207318Y-9608869D01*
X14191276Y-9604002D01*
X14176492Y-9596101D01*
X14176492Y-9596100D01*
X14163534Y-9585466D01*
X14152900Y-9572508D01*
X14152089Y-9570991D01*
X14144998Y-9557724D01*
X14140131Y-9541682D01*
X14138488Y-9525000D01*
X14140131Y-9508318D01*
X14144998Y-9492276D01*
X14152899Y-9477492D01*
X14152900Y-9477492D01*
X14163534Y-9464534D01*
X14176492Y-9453900D01*
X14178009Y-9453089D01*
X14191276Y-9445998D01*
X14207318Y-9441131D01*
X14219820Y-9439900D01*
X14228180Y-9439900D01*
X14240682Y-9441131D01*
X14240682Y-9441131D01*
G37*
G36*
X17948682Y-9441131D02*
G01*
X17964724Y-9445998D01*
X17977991Y-9453089D01*
X17979508Y-9453900D01*
X17992466Y-9464534D01*
X18003100Y-9477492D01*
X18003101Y-9477492D01*
X18011002Y-9492276D01*
X18015869Y-9508318D01*
X18017512Y-9525000D01*
X18015869Y-9541682D01*
X18011002Y-9557724D01*
X18003911Y-9570991D01*
X18003100Y-9572508D01*
X17992466Y-9585466D01*
X17979508Y-9596100D01*
X17979508Y-9596101D01*
X17964724Y-9604002D01*
X17948682Y-9608869D01*
X17936180Y-9610100D01*
X17927820Y-9610100D01*
X17915318Y-9608869D01*
X17899276Y-9604002D01*
X17884492Y-9596101D01*
X17884492Y-9596100D01*
X17871534Y-9585466D01*
X17860900Y-9572508D01*
X17860089Y-9570991D01*
X17852998Y-9557724D01*
X17848131Y-9541682D01*
X17846488Y-9525000D01*
X17848131Y-9508318D01*
X17852998Y-9492276D01*
X17860900Y-9477492D01*
X17860900Y-9477492D01*
X17871534Y-9464534D01*
X17884492Y-9453900D01*
X17886009Y-9453089D01*
X17899276Y-9445998D01*
X17915318Y-9441131D01*
X17927820Y-9439900D01*
X17936180Y-9439900D01*
X17948682Y-9441131D01*
X17948682Y-9441131D01*
G37*
G36*
X16170682Y-9441131D02*
G01*
X16186724Y-9445998D01*
X16199991Y-9453089D01*
X16201508Y-9453900D01*
X16214466Y-9464534D01*
X16225100Y-9477492D01*
X16225100Y-9477492D01*
X16233002Y-9492276D01*
X16237869Y-9508318D01*
X16239512Y-9525000D01*
X16237869Y-9541682D01*
X16233002Y-9557724D01*
X16225911Y-9570991D01*
X16225100Y-9572508D01*
X16214466Y-9585466D01*
X16201508Y-9596100D01*
X16201508Y-9596101D01*
X16186724Y-9604002D01*
X16170682Y-9608869D01*
X16158180Y-9610100D01*
X16149820Y-9610100D01*
X16137318Y-9608869D01*
X16121276Y-9604002D01*
X16106492Y-9596101D01*
X16106492Y-9596100D01*
X16093534Y-9585466D01*
X16082900Y-9572508D01*
X16082089Y-9570991D01*
X16074998Y-9557724D01*
X16070131Y-9541682D01*
X16068488Y-9525000D01*
X16070131Y-9508318D01*
X16074998Y-9492276D01*
X16082899Y-9477492D01*
X16082900Y-9477492D01*
X16093534Y-9464534D01*
X16106492Y-9453900D01*
X16108009Y-9453089D01*
X16121276Y-9445998D01*
X16137318Y-9441131D01*
X16149820Y-9439900D01*
X16158180Y-9439900D01*
X16170682Y-9441131D01*
X16170682Y-9441131D01*
G37*
G36*
X15130929Y-8291863D02*
G01*
X15148169Y-8297093D01*
X15164058Y-8305586D01*
X15177985Y-8317015D01*
X15189414Y-8330942D01*
X15197907Y-8346830D01*
X15203137Y-8364071D01*
X15204902Y-8382000D01*
X15203137Y-8399929D01*
X15197907Y-8417170D01*
X15189414Y-8433058D01*
X15177985Y-8446985D01*
X15164058Y-8458414D01*
X15148169Y-8466907D01*
X15130929Y-8472137D01*
X15117493Y-8473460D01*
X15108507Y-8473460D01*
X15095071Y-8472137D01*
X15077830Y-8466907D01*
X15061942Y-8458414D01*
X15048015Y-8446985D01*
X15036586Y-8433058D01*
X15028093Y-8417170D01*
X15022863Y-8399929D01*
X15021097Y-8382000D01*
X15022863Y-8364071D01*
X15028093Y-8346830D01*
X15036586Y-8330942D01*
X15048015Y-8317015D01*
X15061942Y-8305586D01*
X15077830Y-8297093D01*
X15095071Y-8291863D01*
X15108507Y-8290540D01*
X15117493Y-8290540D01*
X15130929Y-8291863D01*
X15130929Y-8291863D01*
G37*
G36*
X16908929Y-8291863D02*
G01*
X16926170Y-8297093D01*
X16942058Y-8305586D01*
X16955985Y-8317015D01*
X16967414Y-8330942D01*
X16975907Y-8346830D01*
X16981137Y-8364071D01*
X16982903Y-8382000D01*
X16981137Y-8399929D01*
X16975907Y-8417170D01*
X16967414Y-8433058D01*
X16955985Y-8446985D01*
X16942058Y-8458414D01*
X16926170Y-8466907D01*
X16908929Y-8472137D01*
X16895493Y-8473460D01*
X16886507Y-8473460D01*
X16873071Y-8472137D01*
X16855831Y-8466907D01*
X16839942Y-8458414D01*
X16826015Y-8446985D01*
X16814586Y-8433058D01*
X16806093Y-8417170D01*
X16800863Y-8399929D01*
X16799098Y-8382000D01*
X16800863Y-8364071D01*
X16806093Y-8346830D01*
X16814586Y-8330942D01*
X16826015Y-8317015D01*
X16839942Y-8305586D01*
X16855831Y-8297093D01*
X16873071Y-8291863D01*
X16886507Y-8290540D01*
X16895493Y-8290540D01*
X16908929Y-8291863D01*
X16908929Y-8291863D01*
G37*
G36*
X16654929Y-8291863D02*
G01*
X16672169Y-8297093D01*
X16688058Y-8305586D01*
X16701985Y-8317015D01*
X16713414Y-8330942D01*
X16721907Y-8346830D01*
X16727137Y-8364071D01*
X16728902Y-8382000D01*
X16727137Y-8399929D01*
X16721907Y-8417170D01*
X16713414Y-8433058D01*
X16701985Y-8446985D01*
X16688058Y-8458414D01*
X16672169Y-8466907D01*
X16654929Y-8472137D01*
X16641493Y-8473460D01*
X16632507Y-8473460D01*
X16619071Y-8472137D01*
X16601830Y-8466907D01*
X16585942Y-8458414D01*
X16572015Y-8446985D01*
X16560586Y-8433058D01*
X16552093Y-8417170D01*
X16546863Y-8399929D01*
X16545097Y-8382000D01*
X16546863Y-8364071D01*
X16552093Y-8346830D01*
X16560586Y-8330942D01*
X16572015Y-8317015D01*
X16585942Y-8305586D01*
X16601830Y-8297093D01*
X16619071Y-8291863D01*
X16632507Y-8290540D01*
X16641493Y-8290540D01*
X16654929Y-8291863D01*
X16654929Y-8291863D01*
G37*
G36*
X16400929Y-8291863D02*
G01*
X16418169Y-8297093D01*
X16434058Y-8305586D01*
X16447985Y-8317015D01*
X16459414Y-8330942D01*
X16467907Y-8346830D01*
X16473137Y-8364071D01*
X16474902Y-8382000D01*
X16473137Y-8399929D01*
X16467907Y-8417170D01*
X16459414Y-8433058D01*
X16447985Y-8446985D01*
X16434058Y-8458414D01*
X16418169Y-8466907D01*
X16400929Y-8472137D01*
X16387493Y-8473460D01*
X16378507Y-8473460D01*
X16365071Y-8472137D01*
X16347830Y-8466907D01*
X16331942Y-8458414D01*
X16318015Y-8446985D01*
X16306586Y-8433058D01*
X16298093Y-8417170D01*
X16292863Y-8399929D01*
X16291097Y-8382000D01*
X16292863Y-8364071D01*
X16298093Y-8346830D01*
X16306586Y-8330942D01*
X16318015Y-8317015D01*
X16331942Y-8305586D01*
X16347830Y-8297093D01*
X16365071Y-8291863D01*
X16378507Y-8290540D01*
X16387493Y-8290540D01*
X16400929Y-8291863D01*
X16400929Y-8291863D01*
G37*
G36*
X16146929Y-8291863D02*
G01*
X16164169Y-8297093D01*
X16180058Y-8305586D01*
X16193985Y-8317015D01*
X16205414Y-8330942D01*
X16213907Y-8346830D01*
X16219137Y-8364071D01*
X16220902Y-8382000D01*
X16219137Y-8399929D01*
X16213907Y-8417170D01*
X16205414Y-8433058D01*
X16193985Y-8446985D01*
X16180058Y-8458414D01*
X16164169Y-8466907D01*
X16146929Y-8472137D01*
X16133493Y-8473460D01*
X16124507Y-8473460D01*
X16111071Y-8472137D01*
X16093830Y-8466907D01*
X16077942Y-8458414D01*
X16064015Y-8446985D01*
X16052586Y-8433058D01*
X16044093Y-8417170D01*
X16038863Y-8399929D01*
X16037097Y-8382000D01*
X16038863Y-8364071D01*
X16044093Y-8346830D01*
X16052586Y-8330942D01*
X16064015Y-8317015D01*
X16077942Y-8305586D01*
X16093830Y-8297093D01*
X16111071Y-8291863D01*
X16124507Y-8290540D01*
X16133493Y-8290540D01*
X16146929Y-8291863D01*
X16146929Y-8291863D01*
G37*
G36*
X15892929Y-8291863D02*
G01*
X15910169Y-8297093D01*
X15926058Y-8305586D01*
X15939985Y-8317015D01*
X15951414Y-8330942D01*
X15959907Y-8346830D01*
X15965137Y-8364071D01*
X15966902Y-8382000D01*
X15965137Y-8399929D01*
X15959907Y-8417170D01*
X15951414Y-8433058D01*
X15939985Y-8446985D01*
X15926058Y-8458414D01*
X15910169Y-8466907D01*
X15892929Y-8472137D01*
X15879493Y-8473460D01*
X15870507Y-8473460D01*
X15857071Y-8472137D01*
X15839830Y-8466907D01*
X15823942Y-8458414D01*
X15810015Y-8446985D01*
X15798586Y-8433058D01*
X15790093Y-8417170D01*
X15784863Y-8399929D01*
X15783097Y-8382000D01*
X15784863Y-8364071D01*
X15790093Y-8346830D01*
X15798586Y-8330942D01*
X15810015Y-8317015D01*
X15823942Y-8305586D01*
X15839830Y-8297093D01*
X15857071Y-8291863D01*
X15870507Y-8290540D01*
X15879493Y-8290540D01*
X15892929Y-8291863D01*
X15892929Y-8291863D01*
G37*
G36*
X15638929Y-8291863D02*
G01*
X15656169Y-8297093D01*
X15672058Y-8305586D01*
X15685985Y-8317015D01*
X15697414Y-8330942D01*
X15705907Y-8346830D01*
X15711137Y-8364071D01*
X15712902Y-8382000D01*
X15711137Y-8399929D01*
X15705907Y-8417170D01*
X15697414Y-8433058D01*
X15685985Y-8446985D01*
X15672058Y-8458414D01*
X15656169Y-8466907D01*
X15638929Y-8472137D01*
X15625493Y-8473460D01*
X15616507Y-8473460D01*
X15603071Y-8472137D01*
X15585830Y-8466907D01*
X15569942Y-8458414D01*
X15556015Y-8446985D01*
X15544586Y-8433058D01*
X15536093Y-8417170D01*
X15530863Y-8399929D01*
X15529097Y-8382000D01*
X15530863Y-8364071D01*
X15536093Y-8346830D01*
X15544586Y-8330942D01*
X15556015Y-8317015D01*
X15569942Y-8305586D01*
X15585830Y-8297093D01*
X15603071Y-8291863D01*
X15616507Y-8290540D01*
X15625493Y-8290540D01*
X15638929Y-8291863D01*
X15638929Y-8291863D01*
G37*
G36*
X14876929Y-8291863D02*
G01*
X14894169Y-8297093D01*
X14910058Y-8305586D01*
X14923985Y-8317015D01*
X14935414Y-8330942D01*
X14943907Y-8346830D01*
X14949137Y-8364071D01*
X14950902Y-8382000D01*
X14949137Y-8399929D01*
X14943907Y-8417170D01*
X14935414Y-8433058D01*
X14923985Y-8446985D01*
X14910058Y-8458414D01*
X14894169Y-8466907D01*
X14876929Y-8472137D01*
X14863493Y-8473460D01*
X14854507Y-8473460D01*
X14841071Y-8472137D01*
X14823830Y-8466907D01*
X14807942Y-8458414D01*
X14794015Y-8446985D01*
X14782586Y-8433058D01*
X14774093Y-8417170D01*
X14768863Y-8399929D01*
X14767097Y-8382000D01*
X14768863Y-8364071D01*
X14774093Y-8346830D01*
X14782586Y-8330942D01*
X14794015Y-8317015D01*
X14807942Y-8305586D01*
X14823830Y-8297093D01*
X14841071Y-8291863D01*
X14854507Y-8290540D01*
X14863493Y-8290540D01*
X14876929Y-8291863D01*
X14876929Y-8291863D01*
G37*
G36*
X18432929Y-8291863D02*
G01*
X18450170Y-8297093D01*
X18466058Y-8305586D01*
X18479985Y-8317015D01*
X18491414Y-8330942D01*
X18499907Y-8346830D01*
X18505137Y-8364071D01*
X18506903Y-8382000D01*
X18505137Y-8399929D01*
X18499907Y-8417170D01*
X18491414Y-8433058D01*
X18479985Y-8446985D01*
X18466058Y-8458414D01*
X18450170Y-8466907D01*
X18432929Y-8472137D01*
X18419493Y-8473460D01*
X18410507Y-8473460D01*
X18397071Y-8472137D01*
X18379831Y-8466907D01*
X18363942Y-8458414D01*
X18350015Y-8446985D01*
X18338586Y-8433058D01*
X18330093Y-8417170D01*
X18324863Y-8399929D01*
X18323098Y-8382000D01*
X18324863Y-8364071D01*
X18330093Y-8346830D01*
X18338586Y-8330942D01*
X18350015Y-8317015D01*
X18363942Y-8305586D01*
X18379831Y-8297093D01*
X18397071Y-8291863D01*
X18410507Y-8290540D01*
X18419493Y-8290540D01*
X18432929Y-8291863D01*
X18432929Y-8291863D01*
G37*
G36*
X15384929Y-8291863D02*
G01*
X15402169Y-8297093D01*
X15418058Y-8305586D01*
X15431985Y-8317015D01*
X15443414Y-8330942D01*
X15451907Y-8346830D01*
X15457137Y-8364071D01*
X15458902Y-8382000D01*
X15457137Y-8399929D01*
X15451907Y-8417170D01*
X15443414Y-8433058D01*
X15431985Y-8446985D01*
X15418058Y-8458414D01*
X15402169Y-8466907D01*
X15384929Y-8472137D01*
X15371493Y-8473460D01*
X15362507Y-8473460D01*
X15349071Y-8472137D01*
X15331830Y-8466907D01*
X15315942Y-8458414D01*
X15302015Y-8446985D01*
X15290586Y-8433058D01*
X15282093Y-8417170D01*
X15276863Y-8399929D01*
X15275097Y-8382000D01*
X15276863Y-8364071D01*
X15282093Y-8346830D01*
X15290586Y-8330942D01*
X15302015Y-8317015D01*
X15315942Y-8305586D01*
X15331830Y-8297093D01*
X15349071Y-8291863D01*
X15362507Y-8290540D01*
X15371493Y-8290540D01*
X15384929Y-8291863D01*
X15384929Y-8291863D01*
G37*
G36*
X17416929Y-8291863D02*
G01*
X17434170Y-8297093D01*
X17450058Y-8305586D01*
X17463985Y-8317015D01*
X17475414Y-8330942D01*
X17483907Y-8346830D01*
X17489137Y-8364071D01*
X17490903Y-8382000D01*
X17489137Y-8399929D01*
X17483907Y-8417170D01*
X17475414Y-8433058D01*
X17463985Y-8446985D01*
X17450058Y-8458414D01*
X17434170Y-8466907D01*
X17416929Y-8472137D01*
X17403493Y-8473460D01*
X17394507Y-8473460D01*
X17381071Y-8472137D01*
X17363831Y-8466907D01*
X17347942Y-8458414D01*
X17334015Y-8446985D01*
X17322586Y-8433058D01*
X17314093Y-8417170D01*
X17308863Y-8399929D01*
X17307098Y-8382000D01*
X17308863Y-8364071D01*
X17314093Y-8346830D01*
X17322586Y-8330942D01*
X17334015Y-8317015D01*
X17347942Y-8305586D01*
X17363831Y-8297093D01*
X17381071Y-8291863D01*
X17394507Y-8290540D01*
X17403493Y-8290540D01*
X17416929Y-8291863D01*
X17416929Y-8291863D01*
G37*
G36*
X17670929Y-8291863D02*
G01*
X17688170Y-8297093D01*
X17704058Y-8305586D01*
X17717985Y-8317015D01*
X17729414Y-8330942D01*
X17737907Y-8346830D01*
X17743137Y-8364071D01*
X17744903Y-8382000D01*
X17743137Y-8399929D01*
X17737907Y-8417170D01*
X17729414Y-8433058D01*
X17717985Y-8446985D01*
X17704058Y-8458414D01*
X17688170Y-8466907D01*
X17670929Y-8472137D01*
X17657493Y-8473460D01*
X17648507Y-8473460D01*
X17635071Y-8472137D01*
X17617831Y-8466907D01*
X17601942Y-8458414D01*
X17588015Y-8446985D01*
X17576586Y-8433058D01*
X17568093Y-8417170D01*
X17562863Y-8399929D01*
X17561098Y-8382000D01*
X17562863Y-8364071D01*
X17568093Y-8346830D01*
X17576586Y-8330942D01*
X17588015Y-8317015D01*
X17601942Y-8305586D01*
X17617831Y-8297093D01*
X17635071Y-8291863D01*
X17648507Y-8290540D01*
X17657493Y-8290540D01*
X17670929Y-8291863D01*
X17670929Y-8291863D01*
G37*
G36*
X17924929Y-8291863D02*
G01*
X17942170Y-8297093D01*
X17958058Y-8305586D01*
X17971985Y-8317015D01*
X17983414Y-8330942D01*
X17991907Y-8346830D01*
X17997137Y-8364071D01*
X17998903Y-8382000D01*
X17997137Y-8399929D01*
X17991907Y-8417170D01*
X17983414Y-8433058D01*
X17971985Y-8446985D01*
X17958058Y-8458414D01*
X17942170Y-8466907D01*
X17924929Y-8472137D01*
X17911493Y-8473460D01*
X17902507Y-8473460D01*
X17889071Y-8472137D01*
X17871831Y-8466907D01*
X17855942Y-8458414D01*
X17842015Y-8446985D01*
X17830586Y-8433058D01*
X17822093Y-8417170D01*
X17816863Y-8399929D01*
X17815098Y-8382000D01*
X17816863Y-8364071D01*
X17822093Y-8346830D01*
X17830586Y-8330942D01*
X17842015Y-8317015D01*
X17855942Y-8305586D01*
X17871831Y-8297093D01*
X17889071Y-8291863D01*
X17902507Y-8290540D01*
X17911493Y-8290540D01*
X17924929Y-8291863D01*
X17924929Y-8291863D01*
G37*
G36*
X18178929Y-8291863D02*
G01*
X18196170Y-8297093D01*
X18212058Y-8305586D01*
X18225985Y-8317015D01*
X18237414Y-8330942D01*
X18245907Y-8346830D01*
X18251137Y-8364071D01*
X18252903Y-8382000D01*
X18251137Y-8399929D01*
X18245907Y-8417170D01*
X18237414Y-8433058D01*
X18225985Y-8446985D01*
X18212058Y-8458414D01*
X18196170Y-8466907D01*
X18178929Y-8472137D01*
X18165493Y-8473460D01*
X18156507Y-8473460D01*
X18143071Y-8472137D01*
X18125831Y-8466907D01*
X18109942Y-8458414D01*
X18096015Y-8446985D01*
X18084586Y-8433058D01*
X18076093Y-8417170D01*
X18070863Y-8399929D01*
X18069098Y-8382000D01*
X18070863Y-8364071D01*
X18076093Y-8346830D01*
X18084586Y-8330942D01*
X18096015Y-8317015D01*
X18109942Y-8305586D01*
X18125831Y-8297093D01*
X18143071Y-8291863D01*
X18156507Y-8290540D01*
X18165493Y-8290540D01*
X18178929Y-8291863D01*
X18178929Y-8291863D01*
G37*
G36*
X18686929Y-8291863D02*
G01*
X18704170Y-8297093D01*
X18720058Y-8305586D01*
X18733985Y-8317015D01*
X18745414Y-8330942D01*
X18753907Y-8346830D01*
X18759137Y-8364071D01*
X18760903Y-8382000D01*
X18759137Y-8399929D01*
X18753907Y-8417170D01*
X18745414Y-8433058D01*
X18733985Y-8446985D01*
X18720058Y-8458414D01*
X18704170Y-8466907D01*
X18686929Y-8472137D01*
X18673493Y-8473460D01*
X18664507Y-8473460D01*
X18651071Y-8472137D01*
X18633831Y-8466907D01*
X18617942Y-8458414D01*
X18604015Y-8446985D01*
X18592586Y-8433058D01*
X18584093Y-8417170D01*
X18578863Y-8399929D01*
X18577098Y-8382000D01*
X18578863Y-8364071D01*
X18584093Y-8346830D01*
X18592586Y-8330942D01*
X18604015Y-8317015D01*
X18617942Y-8305586D01*
X18633831Y-8297093D01*
X18651071Y-8291863D01*
X18664507Y-8290540D01*
X18673493Y-8290540D01*
X18686929Y-8291863D01*
X18686929Y-8291863D01*
G37*
G36*
X18940929Y-8291863D02*
G01*
X18958170Y-8297093D01*
X18974058Y-8305586D01*
X18987985Y-8317015D01*
X18999414Y-8330942D01*
X19007907Y-8346830D01*
X19013137Y-8364071D01*
X19014903Y-8382000D01*
X19013137Y-8399929D01*
X19007907Y-8417170D01*
X18999414Y-8433058D01*
X18987985Y-8446985D01*
X18974058Y-8458414D01*
X18958170Y-8466907D01*
X18940929Y-8472137D01*
X18927493Y-8473460D01*
X18918507Y-8473460D01*
X18905071Y-8472137D01*
X18887831Y-8466907D01*
X18871942Y-8458414D01*
X18858015Y-8446985D01*
X18846586Y-8433058D01*
X18838093Y-8417170D01*
X18832863Y-8399929D01*
X18831098Y-8382000D01*
X18832863Y-8364071D01*
X18838093Y-8346830D01*
X18846586Y-8330942D01*
X18858015Y-8317015D01*
X18871942Y-8305586D01*
X18887831Y-8297093D01*
X18905071Y-8291863D01*
X18918507Y-8290540D01*
X18927493Y-8290540D01*
X18940929Y-8291863D01*
X18940929Y-8291863D01*
G37*
G36*
X17162929Y-8291863D02*
G01*
X17180170Y-8297093D01*
X17196058Y-8305586D01*
X17209985Y-8317015D01*
X17221414Y-8330942D01*
X17229907Y-8346830D01*
X17235137Y-8364071D01*
X17236903Y-8382000D01*
X17235137Y-8399929D01*
X17229907Y-8417170D01*
X17221414Y-8433058D01*
X17209985Y-8446985D01*
X17196058Y-8458414D01*
X17180170Y-8466907D01*
X17162929Y-8472137D01*
X17149493Y-8473460D01*
X17140507Y-8473460D01*
X17127071Y-8472137D01*
X17109831Y-8466907D01*
X17093942Y-8458414D01*
X17080015Y-8446985D01*
X17068586Y-8433058D01*
X17060093Y-8417170D01*
X17054863Y-8399929D01*
X17053098Y-8382000D01*
X17054863Y-8364071D01*
X17060093Y-8346830D01*
X17068586Y-8330942D01*
X17080015Y-8317015D01*
X17093942Y-8305586D01*
X17109831Y-8297093D01*
X17127071Y-8291863D01*
X17140507Y-8290540D01*
X17149493Y-8290540D01*
X17162929Y-8291863D01*
X17162929Y-8291863D01*
G37*
G36*
X15130929Y-8037863D02*
G01*
X15148169Y-8043093D01*
X15164058Y-8051586D01*
X15177985Y-8063015D01*
X15189414Y-8076942D01*
X15197907Y-8092830D01*
X15203137Y-8110071D01*
X15204902Y-8128000D01*
X15203137Y-8145929D01*
X15197907Y-8163169D01*
X15189414Y-8179058D01*
X15177985Y-8192985D01*
X15164058Y-8204414D01*
X15148169Y-8212907D01*
X15130929Y-8218137D01*
X15117493Y-8219460D01*
X15108507Y-8219460D01*
X15095071Y-8218137D01*
X15077830Y-8212907D01*
X15061942Y-8204414D01*
X15048015Y-8192985D01*
X15036586Y-8179058D01*
X15028093Y-8163169D01*
X15022863Y-8145929D01*
X15021097Y-8128000D01*
X15022863Y-8110071D01*
X15028093Y-8092830D01*
X15036586Y-8076942D01*
X15048015Y-8063015D01*
X15061942Y-8051586D01*
X15077830Y-8043093D01*
X15095071Y-8037863D01*
X15108507Y-8036540D01*
X15117493Y-8036540D01*
X15130929Y-8037863D01*
X15130929Y-8037863D01*
G37*
G36*
X14876929Y-8037863D02*
G01*
X14894169Y-8043093D01*
X14910058Y-8051586D01*
X14923985Y-8063015D01*
X14935414Y-8076942D01*
X14943907Y-8092830D01*
X14949137Y-8110071D01*
X14950902Y-8128000D01*
X14949137Y-8145929D01*
X14943907Y-8163169D01*
X14935414Y-8179058D01*
X14923985Y-8192985D01*
X14910058Y-8204414D01*
X14894169Y-8212907D01*
X14876929Y-8218137D01*
X14863493Y-8219460D01*
X14854507Y-8219460D01*
X14841071Y-8218137D01*
X14823830Y-8212907D01*
X14807942Y-8204414D01*
X14794015Y-8192985D01*
X14782586Y-8179058D01*
X14774093Y-8163169D01*
X14768863Y-8145929D01*
X14767097Y-8128000D01*
X14768863Y-8110071D01*
X14774093Y-8092830D01*
X14782586Y-8076942D01*
X14794015Y-8063015D01*
X14807942Y-8051586D01*
X14823830Y-8043093D01*
X14841071Y-8037863D01*
X14854507Y-8036540D01*
X14863493Y-8036540D01*
X14876929Y-8037863D01*
X14876929Y-8037863D01*
G37*
G36*
X19014460Y-8219460D02*
G01*
X18831540Y-8219460D01*
X18831540Y-8036540D01*
X19014460Y-8036540D01*
X19014460Y-8219460D01*
X19014460Y-8219460D01*
G37*
G36*
X15384929Y-8037863D02*
G01*
X15402169Y-8043093D01*
X15418058Y-8051586D01*
X15431985Y-8063015D01*
X15443414Y-8076942D01*
X15451907Y-8092830D01*
X15457137Y-8110071D01*
X15458902Y-8128000D01*
X15457137Y-8145929D01*
X15451907Y-8163169D01*
X15443414Y-8179058D01*
X15431985Y-8192985D01*
X15418058Y-8204414D01*
X15402169Y-8212907D01*
X15384929Y-8218137D01*
X15371493Y-8219460D01*
X15362507Y-8219460D01*
X15349071Y-8218137D01*
X15331830Y-8212907D01*
X15315942Y-8204414D01*
X15302015Y-8192985D01*
X15290586Y-8179058D01*
X15282093Y-8163169D01*
X15276863Y-8145929D01*
X15275097Y-8128000D01*
X15276863Y-8110071D01*
X15282093Y-8092830D01*
X15290586Y-8076942D01*
X15302015Y-8063015D01*
X15315942Y-8051586D01*
X15331830Y-8043093D01*
X15349071Y-8037863D01*
X15362507Y-8036540D01*
X15371493Y-8036540D01*
X15384929Y-8037863D01*
X15384929Y-8037863D01*
G37*
G36*
X15638929Y-8037863D02*
G01*
X15656169Y-8043093D01*
X15672058Y-8051586D01*
X15685985Y-8063015D01*
X15697414Y-8076942D01*
X15705907Y-8092830D01*
X15711137Y-8110071D01*
X15712902Y-8128000D01*
X15711137Y-8145929D01*
X15705907Y-8163169D01*
X15697414Y-8179058D01*
X15685985Y-8192985D01*
X15672058Y-8204414D01*
X15656169Y-8212907D01*
X15638929Y-8218137D01*
X15625493Y-8219460D01*
X15616507Y-8219460D01*
X15603071Y-8218137D01*
X15585830Y-8212907D01*
X15569942Y-8204414D01*
X15556015Y-8192985D01*
X15544586Y-8179058D01*
X15536093Y-8163169D01*
X15530863Y-8145929D01*
X15529097Y-8128000D01*
X15530863Y-8110071D01*
X15536093Y-8092830D01*
X15544586Y-8076942D01*
X15556015Y-8063015D01*
X15569942Y-8051586D01*
X15585830Y-8043093D01*
X15603071Y-8037863D01*
X15616507Y-8036540D01*
X15625493Y-8036540D01*
X15638929Y-8037863D01*
X15638929Y-8037863D01*
G37*
G36*
X15892929Y-8037863D02*
G01*
X15910169Y-8043093D01*
X15926058Y-8051586D01*
X15939985Y-8063015D01*
X15951414Y-8076942D01*
X15959907Y-8092830D01*
X15965137Y-8110071D01*
X15966902Y-8128000D01*
X15965137Y-8145929D01*
X15959907Y-8163169D01*
X15951414Y-8179058D01*
X15939985Y-8192985D01*
X15926058Y-8204414D01*
X15910169Y-8212907D01*
X15892929Y-8218137D01*
X15879493Y-8219460D01*
X15870507Y-8219460D01*
X15857071Y-8218137D01*
X15839830Y-8212907D01*
X15823942Y-8204414D01*
X15810015Y-8192985D01*
X15798586Y-8179058D01*
X15790093Y-8163169D01*
X15784863Y-8145929D01*
X15783097Y-8128000D01*
X15784863Y-8110071D01*
X15790093Y-8092830D01*
X15798586Y-8076942D01*
X15810015Y-8063015D01*
X15823942Y-8051586D01*
X15839830Y-8043093D01*
X15857071Y-8037863D01*
X15870507Y-8036540D01*
X15879493Y-8036540D01*
X15892929Y-8037863D01*
X15892929Y-8037863D01*
G37*
G36*
X16146929Y-8037863D02*
G01*
X16164169Y-8043093D01*
X16180058Y-8051586D01*
X16193985Y-8063015D01*
X16205414Y-8076942D01*
X16213907Y-8092830D01*
X16219137Y-8110071D01*
X16220902Y-8128000D01*
X16219137Y-8145929D01*
X16213907Y-8163169D01*
X16205414Y-8179058D01*
X16193985Y-8192985D01*
X16180058Y-8204414D01*
X16164169Y-8212907D01*
X16146929Y-8218137D01*
X16133493Y-8219460D01*
X16124507Y-8219460D01*
X16111071Y-8218137D01*
X16093830Y-8212907D01*
X16077942Y-8204414D01*
X16064015Y-8192985D01*
X16052586Y-8179058D01*
X16044093Y-8163169D01*
X16038863Y-8145929D01*
X16037097Y-8128000D01*
X16038863Y-8110071D01*
X16044093Y-8092830D01*
X16052586Y-8076942D01*
X16064015Y-8063015D01*
X16077942Y-8051586D01*
X16093830Y-8043093D01*
X16111071Y-8037863D01*
X16124507Y-8036540D01*
X16133493Y-8036540D01*
X16146929Y-8037863D01*
X16146929Y-8037863D01*
G37*
G36*
X16400929Y-8037863D02*
G01*
X16418169Y-8043093D01*
X16434058Y-8051586D01*
X16447985Y-8063015D01*
X16459414Y-8076942D01*
X16467907Y-8092830D01*
X16473137Y-8110071D01*
X16474902Y-8128000D01*
X16473137Y-8145929D01*
X16467907Y-8163169D01*
X16459414Y-8179058D01*
X16447985Y-8192985D01*
X16434058Y-8204414D01*
X16418169Y-8212907D01*
X16400929Y-8218137D01*
X16387493Y-8219460D01*
X16378507Y-8219460D01*
X16365071Y-8218137D01*
X16347830Y-8212907D01*
X16331942Y-8204414D01*
X16318015Y-8192985D01*
X16306586Y-8179058D01*
X16298093Y-8163169D01*
X16292863Y-8145929D01*
X16291097Y-8128000D01*
X16292863Y-8110071D01*
X16298093Y-8092830D01*
X16306586Y-8076942D01*
X16318015Y-8063015D01*
X16331942Y-8051586D01*
X16347830Y-8043093D01*
X16365071Y-8037863D01*
X16378507Y-8036540D01*
X16387493Y-8036540D01*
X16400929Y-8037863D01*
X16400929Y-8037863D01*
G37*
G36*
X17162929Y-8037863D02*
G01*
X17180170Y-8043093D01*
X17196058Y-8051586D01*
X17209985Y-8063015D01*
X17221414Y-8076942D01*
X17229907Y-8092830D01*
X17235137Y-8110071D01*
X17236903Y-8128000D01*
X17235137Y-8145929D01*
X17229907Y-8163169D01*
X17221414Y-8179058D01*
X17209985Y-8192985D01*
X17196058Y-8204414D01*
X17180170Y-8212907D01*
X17162929Y-8218137D01*
X17149493Y-8219460D01*
X17140507Y-8219460D01*
X17127071Y-8218137D01*
X17109831Y-8212907D01*
X17093942Y-8204414D01*
X17080015Y-8192985D01*
X17068586Y-8179058D01*
X17060093Y-8163169D01*
X17054863Y-8145929D01*
X17053098Y-8128000D01*
X17054863Y-8110071D01*
X17060093Y-8092830D01*
X17068586Y-8076942D01*
X17080015Y-8063015D01*
X17093942Y-8051586D01*
X17109831Y-8043093D01*
X17127071Y-8037863D01*
X17140507Y-8036540D01*
X17149493Y-8036540D01*
X17162929Y-8037863D01*
X17162929Y-8037863D01*
G37*
G36*
X17416929Y-8037863D02*
G01*
X17434170Y-8043093D01*
X17450058Y-8051586D01*
X17463985Y-8063015D01*
X17475414Y-8076942D01*
X17483907Y-8092830D01*
X17489137Y-8110071D01*
X17490903Y-8128000D01*
X17489137Y-8145929D01*
X17483907Y-8163169D01*
X17475414Y-8179058D01*
X17463985Y-8192985D01*
X17450058Y-8204414D01*
X17434170Y-8212907D01*
X17416929Y-8218137D01*
X17403493Y-8219460D01*
X17394507Y-8219460D01*
X17381071Y-8218137D01*
X17363831Y-8212907D01*
X17347942Y-8204414D01*
X17334015Y-8192985D01*
X17322586Y-8179058D01*
X17314093Y-8163169D01*
X17308863Y-8145929D01*
X17307098Y-8128000D01*
X17308863Y-8110071D01*
X17314093Y-8092830D01*
X17322586Y-8076942D01*
X17334015Y-8063015D01*
X17347942Y-8051586D01*
X17363831Y-8043093D01*
X17381071Y-8037863D01*
X17394507Y-8036540D01*
X17403493Y-8036540D01*
X17416929Y-8037863D01*
X17416929Y-8037863D01*
G37*
G36*
X16908929Y-8037863D02*
G01*
X16926170Y-8043093D01*
X16942058Y-8051586D01*
X16955985Y-8063015D01*
X16967414Y-8076942D01*
X16975907Y-8092830D01*
X16981137Y-8110071D01*
X16982903Y-8128000D01*
X16981137Y-8145929D01*
X16975907Y-8163169D01*
X16967414Y-8179058D01*
X16955985Y-8192985D01*
X16942058Y-8204414D01*
X16926170Y-8212907D01*
X16908929Y-8218137D01*
X16895493Y-8219460D01*
X16886507Y-8219460D01*
X16873071Y-8218137D01*
X16855831Y-8212907D01*
X16839942Y-8204414D01*
X16826015Y-8192985D01*
X16814586Y-8179058D01*
X16806093Y-8163169D01*
X16800863Y-8145929D01*
X16799098Y-8128000D01*
X16800863Y-8110071D01*
X16806093Y-8092830D01*
X16814586Y-8076942D01*
X16826015Y-8063015D01*
X16839942Y-8051586D01*
X16855831Y-8043093D01*
X16873071Y-8037863D01*
X16886507Y-8036540D01*
X16895493Y-8036540D01*
X16908929Y-8037863D01*
X16908929Y-8037863D01*
G37*
G36*
X17670929Y-8037863D02*
G01*
X17688170Y-8043093D01*
X17704058Y-8051586D01*
X17717985Y-8063015D01*
X17729414Y-8076942D01*
X17737907Y-8092830D01*
X17743137Y-8110071D01*
X17744903Y-8128000D01*
X17743137Y-8145929D01*
X17737907Y-8163169D01*
X17729414Y-8179058D01*
X17717985Y-8192985D01*
X17704058Y-8204414D01*
X17688170Y-8212907D01*
X17670929Y-8218137D01*
X17657493Y-8219460D01*
X17648507Y-8219460D01*
X17635071Y-8218137D01*
X17617831Y-8212907D01*
X17601942Y-8204414D01*
X17588015Y-8192985D01*
X17576586Y-8179058D01*
X17568093Y-8163169D01*
X17562863Y-8145929D01*
X17561098Y-8128000D01*
X17562863Y-8110071D01*
X17568093Y-8092830D01*
X17576586Y-8076942D01*
X17588015Y-8063015D01*
X17601942Y-8051586D01*
X17617831Y-8043093D01*
X17635071Y-8037863D01*
X17648507Y-8036540D01*
X17657493Y-8036540D01*
X17670929Y-8037863D01*
X17670929Y-8037863D01*
G37*
G36*
X18686929Y-8037863D02*
G01*
X18704170Y-8043093D01*
X18720058Y-8051586D01*
X18733985Y-8063015D01*
X18745414Y-8076942D01*
X18753907Y-8092830D01*
X18759137Y-8110071D01*
X18760903Y-8128000D01*
X18759137Y-8145929D01*
X18753907Y-8163169D01*
X18745414Y-8179058D01*
X18733985Y-8192985D01*
X18720058Y-8204414D01*
X18704170Y-8212907D01*
X18686929Y-8218137D01*
X18673493Y-8219460D01*
X18664507Y-8219460D01*
X18651071Y-8218137D01*
X18633831Y-8212907D01*
X18617942Y-8204414D01*
X18604015Y-8192985D01*
X18592586Y-8179058D01*
X18584093Y-8163169D01*
X18578863Y-8145929D01*
X18577098Y-8128000D01*
X18578863Y-8110071D01*
X18584093Y-8092830D01*
X18592586Y-8076942D01*
X18604015Y-8063015D01*
X18617942Y-8051586D01*
X18633831Y-8043093D01*
X18651071Y-8037863D01*
X18664507Y-8036540D01*
X18673493Y-8036540D01*
X18686929Y-8037863D01*
X18686929Y-8037863D01*
G37*
G36*
X17924929Y-8037863D02*
G01*
X17942170Y-8043093D01*
X17958058Y-8051586D01*
X17971985Y-8063015D01*
X17983414Y-8076942D01*
X17991907Y-8092830D01*
X17997137Y-8110071D01*
X17998903Y-8128000D01*
X17997137Y-8145929D01*
X17991907Y-8163169D01*
X17983414Y-8179058D01*
X17971985Y-8192985D01*
X17958058Y-8204414D01*
X17942170Y-8212907D01*
X17924929Y-8218137D01*
X17911493Y-8219460D01*
X17902507Y-8219460D01*
X17889071Y-8218137D01*
X17871831Y-8212907D01*
X17855942Y-8204414D01*
X17842015Y-8192985D01*
X17830586Y-8179058D01*
X17822093Y-8163169D01*
X17816863Y-8145929D01*
X17815098Y-8128000D01*
X17816863Y-8110071D01*
X17822093Y-8092830D01*
X17830586Y-8076942D01*
X17842015Y-8063015D01*
X17855942Y-8051586D01*
X17871831Y-8043093D01*
X17889071Y-8037863D01*
X17902507Y-8036540D01*
X17911493Y-8036540D01*
X17924929Y-8037863D01*
X17924929Y-8037863D01*
G37*
G36*
X18432929Y-8037863D02*
G01*
X18450170Y-8043093D01*
X18466058Y-8051586D01*
X18479985Y-8063015D01*
X18491414Y-8076942D01*
X18499907Y-8092830D01*
X18505137Y-8110071D01*
X18506903Y-8128000D01*
X18505137Y-8145929D01*
X18499907Y-8163169D01*
X18491414Y-8179058D01*
X18479985Y-8192985D01*
X18466058Y-8204414D01*
X18450170Y-8212907D01*
X18432929Y-8218137D01*
X18419493Y-8219460D01*
X18410507Y-8219460D01*
X18397071Y-8218137D01*
X18379831Y-8212907D01*
X18363942Y-8204414D01*
X18350015Y-8192985D01*
X18338586Y-8179058D01*
X18330093Y-8163169D01*
X18324863Y-8145929D01*
X18323098Y-8128000D01*
X18324863Y-8110071D01*
X18330093Y-8092830D01*
X18338586Y-8076942D01*
X18350015Y-8063015D01*
X18363942Y-8051586D01*
X18379831Y-8043093D01*
X18397071Y-8037863D01*
X18410507Y-8036540D01*
X18419493Y-8036540D01*
X18432929Y-8037863D01*
X18432929Y-8037863D01*
G37*
G36*
X18178929Y-8037863D02*
G01*
X18196170Y-8043093D01*
X18212058Y-8051586D01*
X18225985Y-8063015D01*
X18237414Y-8076942D01*
X18245907Y-8092830D01*
X18251137Y-8110071D01*
X18252903Y-8128000D01*
X18251137Y-8145929D01*
X18245907Y-8163169D01*
X18237414Y-8179058D01*
X18225985Y-8192985D01*
X18212058Y-8204414D01*
X18196170Y-8212907D01*
X18178929Y-8218137D01*
X18165493Y-8219460D01*
X18156507Y-8219460D01*
X18143071Y-8218137D01*
X18125831Y-8212907D01*
X18109942Y-8204414D01*
X18096015Y-8192985D01*
X18084586Y-8179058D01*
X18076093Y-8163169D01*
X18070863Y-8145929D01*
X18069098Y-8128000D01*
X18070863Y-8110071D01*
X18076093Y-8092830D01*
X18084586Y-8076942D01*
X18096015Y-8063015D01*
X18109942Y-8051586D01*
X18125831Y-8043093D01*
X18143071Y-8037863D01*
X18156507Y-8036540D01*
X18165493Y-8036540D01*
X18178929Y-8037863D01*
X18178929Y-8037863D01*
G37*
G36*
X16654929Y-8037863D02*
G01*
X16672169Y-8043093D01*
X16688058Y-8051586D01*
X16701985Y-8063015D01*
X16713414Y-8076942D01*
X16721907Y-8092830D01*
X16727137Y-8110071D01*
X16728902Y-8128000D01*
X16727137Y-8145929D01*
X16721907Y-8163169D01*
X16713414Y-8179058D01*
X16701985Y-8192985D01*
X16688058Y-8204414D01*
X16672169Y-8212907D01*
X16654929Y-8218137D01*
X16641493Y-8219460D01*
X16632507Y-8219460D01*
X16619071Y-8218137D01*
X16601830Y-8212907D01*
X16585942Y-8204414D01*
X16572015Y-8192985D01*
X16560586Y-8179058D01*
X16552093Y-8163169D01*
X16546863Y-8145929D01*
X16545097Y-8128000D01*
X16546863Y-8110071D01*
X16552093Y-8092830D01*
X16560586Y-8076942D01*
X16572015Y-8063015D01*
X16585942Y-8051586D01*
X16601830Y-8043093D01*
X16619071Y-8037863D01*
X16632507Y-8036540D01*
X16641493Y-8036540D01*
X16654929Y-8037863D01*
X16654929Y-8037863D01*
G37*
G36*
X16272682Y-7369131D02*
G01*
X16288724Y-7373998D01*
X16303508Y-7381899D01*
X16316466Y-7392534D01*
X16327100Y-7405492D01*
X16327100Y-7405492D01*
X16335002Y-7420276D01*
X16339869Y-7436318D01*
X16341100Y-7448820D01*
X16341100Y-7537180D01*
X16339869Y-7549682D01*
X16335002Y-7565724D01*
X16327911Y-7578991D01*
X16327100Y-7580508D01*
X16316466Y-7593466D01*
X16303508Y-7604100D01*
X16303508Y-7604100D01*
X16288724Y-7612002D01*
X16272682Y-7616869D01*
X16256000Y-7618512D01*
X16239318Y-7616869D01*
X16223276Y-7612002D01*
X16208492Y-7604100D01*
X16208492Y-7604100D01*
X16195534Y-7593466D01*
X16184900Y-7580508D01*
X16184089Y-7578991D01*
X16176998Y-7565724D01*
X16172131Y-7549682D01*
X16170900Y-7537180D01*
X16170900Y-7448820D01*
X16172131Y-7436318D01*
X16176998Y-7420276D01*
X16184899Y-7405492D01*
X16195534Y-7392534D01*
X16208492Y-7381900D01*
X16210009Y-7381089D01*
X16223276Y-7373998D01*
X16239318Y-7369131D01*
X16256000Y-7367488D01*
X16272682Y-7369131D01*
X16272682Y-7369131D01*
G37*
G36*
X17542682Y-7369131D02*
G01*
X17558724Y-7373998D01*
X17573508Y-7381899D01*
X17586466Y-7392534D01*
X17597100Y-7405492D01*
X17597101Y-7405492D01*
X17605002Y-7420276D01*
X17609869Y-7436318D01*
X17611100Y-7448820D01*
X17611100Y-7537180D01*
X17609869Y-7549682D01*
X17605002Y-7565724D01*
X17597911Y-7578991D01*
X17597100Y-7580508D01*
X17586466Y-7593466D01*
X17573508Y-7604100D01*
X17573508Y-7604100D01*
X17558724Y-7612002D01*
X17542682Y-7616869D01*
X17526000Y-7618512D01*
X17509318Y-7616869D01*
X17493276Y-7612002D01*
X17478493Y-7604100D01*
X17478492Y-7604100D01*
X17465534Y-7593466D01*
X17454900Y-7580508D01*
X17454089Y-7578991D01*
X17446998Y-7565724D01*
X17442131Y-7549682D01*
X17440900Y-7537180D01*
X17440900Y-7448820D01*
X17442131Y-7436318D01*
X17446998Y-7420276D01*
X17454900Y-7405492D01*
X17465534Y-7392534D01*
X17478492Y-7381900D01*
X17480009Y-7381089D01*
X17493276Y-7373998D01*
X17509318Y-7369131D01*
X17526000Y-7367488D01*
X17542682Y-7369131D01*
X17542682Y-7369131D01*
G37*
G36*
X17796682Y-7369131D02*
G01*
X17812724Y-7373998D01*
X17827508Y-7381899D01*
X17840466Y-7392534D01*
X17851100Y-7405492D01*
X17851101Y-7405492D01*
X17859002Y-7420276D01*
X17863869Y-7436318D01*
X17865100Y-7448820D01*
X17865100Y-7537180D01*
X17863869Y-7549682D01*
X17859002Y-7565724D01*
X17851911Y-7578991D01*
X17851100Y-7580508D01*
X17840466Y-7593466D01*
X17827508Y-7604100D01*
X17827508Y-7604100D01*
X17812724Y-7612002D01*
X17796682Y-7616869D01*
X17780000Y-7618512D01*
X17763318Y-7616869D01*
X17747276Y-7612002D01*
X17732493Y-7604100D01*
X17732492Y-7604100D01*
X17719534Y-7593466D01*
X17708900Y-7580508D01*
X17708089Y-7578991D01*
X17700998Y-7565724D01*
X17696131Y-7549682D01*
X17694900Y-7537180D01*
X17694900Y-7448820D01*
X17696131Y-7436318D01*
X17700998Y-7420276D01*
X17708900Y-7405492D01*
X17719534Y-7392534D01*
X17732492Y-7381900D01*
X17734009Y-7381089D01*
X17747276Y-7373998D01*
X17763318Y-7369131D01*
X17780000Y-7367488D01*
X17796682Y-7369131D01*
X17796682Y-7369131D01*
G37*
G36*
X16780682Y-7369131D02*
G01*
X16796724Y-7373998D01*
X16811508Y-7381899D01*
X16824466Y-7392534D01*
X16835100Y-7405492D01*
X16835101Y-7405492D01*
X16843002Y-7420276D01*
X16847869Y-7436318D01*
X16849100Y-7448820D01*
X16849100Y-7537180D01*
X16847869Y-7549682D01*
X16843002Y-7565724D01*
X16835911Y-7578991D01*
X16835100Y-7580508D01*
X16824466Y-7593466D01*
X16811508Y-7604100D01*
X16811508Y-7604100D01*
X16796724Y-7612002D01*
X16780682Y-7616869D01*
X16764000Y-7618512D01*
X16747318Y-7616869D01*
X16731276Y-7612002D01*
X16716492Y-7604100D01*
X16716492Y-7604100D01*
X16703534Y-7593466D01*
X16692900Y-7580508D01*
X16692089Y-7578991D01*
X16684998Y-7565724D01*
X16680131Y-7549682D01*
X16678900Y-7537180D01*
X16678900Y-7448820D01*
X16680131Y-7436318D01*
X16684998Y-7420276D01*
X16692899Y-7405492D01*
X16703534Y-7392534D01*
X16716492Y-7381900D01*
X16718009Y-7381089D01*
X16731276Y-7373998D01*
X16747318Y-7369131D01*
X16764000Y-7367488D01*
X16780682Y-7369131D01*
X16780682Y-7369131D01*
G37*
G36*
X18050682Y-7369131D02*
G01*
X18066724Y-7373998D01*
X18081508Y-7381899D01*
X18094466Y-7392534D01*
X18105100Y-7405492D01*
X18105101Y-7405492D01*
X18113002Y-7420276D01*
X18117869Y-7436318D01*
X18119100Y-7448820D01*
X18119100Y-7537180D01*
X18117869Y-7549682D01*
X18113002Y-7565724D01*
X18105911Y-7578991D01*
X18105100Y-7580508D01*
X18094466Y-7593466D01*
X18081508Y-7604100D01*
X18081508Y-7604100D01*
X18066724Y-7612002D01*
X18050682Y-7616869D01*
X18034000Y-7618512D01*
X18017318Y-7616869D01*
X18001276Y-7612002D01*
X17986493Y-7604100D01*
X17986492Y-7604100D01*
X17973534Y-7593466D01*
X17962900Y-7580508D01*
X17962089Y-7578991D01*
X17954998Y-7565724D01*
X17950131Y-7549682D01*
X17948900Y-7537180D01*
X17948900Y-7448820D01*
X17950131Y-7436318D01*
X17954998Y-7420276D01*
X17962900Y-7405492D01*
X17973534Y-7392534D01*
X17986492Y-7381900D01*
X17988009Y-7381089D01*
X18001276Y-7373998D01*
X18017318Y-7369131D01*
X18034000Y-7367488D01*
X18050682Y-7369131D01*
X18050682Y-7369131D01*
G37*
G36*
X16526682Y-7369131D02*
G01*
X16542724Y-7373998D01*
X16557508Y-7381899D01*
X16570466Y-7392534D01*
X16581100Y-7405492D01*
X16581100Y-7405492D01*
X16589002Y-7420276D01*
X16593869Y-7436318D01*
X16595100Y-7448820D01*
X16595100Y-7537180D01*
X16593869Y-7549682D01*
X16589002Y-7565724D01*
X16581911Y-7578991D01*
X16581100Y-7580508D01*
X16570466Y-7593466D01*
X16557508Y-7604100D01*
X16557508Y-7604100D01*
X16542724Y-7612002D01*
X16526682Y-7616869D01*
X16510000Y-7618512D01*
X16493318Y-7616869D01*
X16477276Y-7612002D01*
X16462492Y-7604100D01*
X16462492Y-7604100D01*
X16449534Y-7593466D01*
X16438900Y-7580508D01*
X16438089Y-7578991D01*
X16430998Y-7565724D01*
X16426131Y-7549682D01*
X16424900Y-7537180D01*
X16424900Y-7448820D01*
X16426131Y-7436318D01*
X16430998Y-7420276D01*
X16438899Y-7405492D01*
X16449534Y-7392534D01*
X16462492Y-7381900D01*
X16464009Y-7381089D01*
X16477276Y-7373998D01*
X16493318Y-7369131D01*
X16510000Y-7367488D01*
X16526682Y-7369131D01*
X16526682Y-7369131D01*
G37*
G36*
X18304682Y-7369131D02*
G01*
X18320724Y-7373998D01*
X18335508Y-7381899D01*
X18348466Y-7392534D01*
X18359100Y-7405492D01*
X18359101Y-7405492D01*
X18367002Y-7420276D01*
X18371869Y-7436318D01*
X18373100Y-7448820D01*
X18373100Y-7537180D01*
X18371869Y-7549682D01*
X18367002Y-7565724D01*
X18359911Y-7578991D01*
X18359100Y-7580508D01*
X18348466Y-7593466D01*
X18335508Y-7604100D01*
X18335508Y-7604100D01*
X18320724Y-7612002D01*
X18304682Y-7616869D01*
X18288000Y-7618512D01*
X18271318Y-7616869D01*
X18255276Y-7612002D01*
X18240493Y-7604100D01*
X18240492Y-7604100D01*
X18227534Y-7593466D01*
X18216900Y-7580508D01*
X18216089Y-7578991D01*
X18208998Y-7565724D01*
X18204131Y-7549682D01*
X18202900Y-7537180D01*
X18202900Y-7448820D01*
X18204131Y-7436318D01*
X18208998Y-7420276D01*
X18216900Y-7405492D01*
X18227534Y-7392534D01*
X18240492Y-7381900D01*
X18242009Y-7381089D01*
X18255276Y-7373998D01*
X18271318Y-7369131D01*
X18288000Y-7367488D01*
X18304682Y-7369131D01*
X18304682Y-7369131D01*
G37*
G36*
X18558682Y-7369131D02*
G01*
X18574724Y-7373998D01*
X18589508Y-7381899D01*
X18602466Y-7392534D01*
X18613100Y-7405492D01*
X18613101Y-7405492D01*
X18621002Y-7420276D01*
X18625869Y-7436318D01*
X18627100Y-7448820D01*
X18627100Y-7537180D01*
X18625869Y-7549682D01*
X18621002Y-7565724D01*
X18613911Y-7578991D01*
X18613100Y-7580508D01*
X18602466Y-7593466D01*
X18589508Y-7604100D01*
X18589508Y-7604100D01*
X18574724Y-7612002D01*
X18558682Y-7616869D01*
X18542000Y-7618512D01*
X18525318Y-7616869D01*
X18509276Y-7612002D01*
X18494493Y-7604100D01*
X18494492Y-7604100D01*
X18481534Y-7593466D01*
X18470900Y-7580508D01*
X18470089Y-7578991D01*
X18462998Y-7565724D01*
X18458131Y-7549682D01*
X18456900Y-7537180D01*
X18456900Y-7448820D01*
X18458131Y-7436318D01*
X18462998Y-7420276D01*
X18470900Y-7405492D01*
X18481534Y-7392534D01*
X18494492Y-7381900D01*
X18496009Y-7381089D01*
X18509276Y-7373998D01*
X18525318Y-7369131D01*
X18542000Y-7367488D01*
X18558682Y-7369131D01*
X18558682Y-7369131D01*
G37*
G36*
X15764682Y-7369131D02*
G01*
X15780724Y-7373998D01*
X15795508Y-7381899D01*
X15808466Y-7392534D01*
X15819100Y-7405492D01*
X15819100Y-7405492D01*
X15827002Y-7420276D01*
X15831869Y-7436318D01*
X15833100Y-7448820D01*
X15833100Y-7537180D01*
X15831869Y-7549682D01*
X15827002Y-7565724D01*
X15819911Y-7578991D01*
X15819100Y-7580508D01*
X15808466Y-7593466D01*
X15795508Y-7604100D01*
X15795508Y-7604100D01*
X15780724Y-7612002D01*
X15764682Y-7616869D01*
X15748000Y-7618512D01*
X15731318Y-7616869D01*
X15715276Y-7612002D01*
X15700492Y-7604100D01*
X15700492Y-7604100D01*
X15687534Y-7593466D01*
X15676900Y-7580508D01*
X15676089Y-7578991D01*
X15668998Y-7565724D01*
X15664131Y-7549682D01*
X15662900Y-7537180D01*
X15662900Y-7448820D01*
X15664131Y-7436318D01*
X15668998Y-7420276D01*
X15676899Y-7405492D01*
X15687534Y-7392534D01*
X15700492Y-7381900D01*
X15702009Y-7381089D01*
X15715276Y-7373998D01*
X15731318Y-7369131D01*
X15748000Y-7367488D01*
X15764682Y-7369131D01*
X15764682Y-7369131D01*
G37*
G36*
X18812682Y-7369131D02*
G01*
X18828724Y-7373998D01*
X18843508Y-7381899D01*
X18856466Y-7392534D01*
X18867100Y-7405492D01*
X18867101Y-7405492D01*
X18875002Y-7420276D01*
X18879869Y-7436318D01*
X18881100Y-7448820D01*
X18881100Y-7537180D01*
X18879869Y-7549682D01*
X18875002Y-7565724D01*
X18867911Y-7578991D01*
X18867100Y-7580508D01*
X18856466Y-7593466D01*
X18843508Y-7604100D01*
X18843508Y-7604100D01*
X18828724Y-7612002D01*
X18812682Y-7616869D01*
X18796000Y-7618512D01*
X18779318Y-7616869D01*
X18763276Y-7612002D01*
X18748493Y-7604100D01*
X18748492Y-7604100D01*
X18735534Y-7593466D01*
X18724900Y-7580508D01*
X18724089Y-7578991D01*
X18716998Y-7565724D01*
X18712131Y-7549682D01*
X18710900Y-7537180D01*
X18710900Y-7448820D01*
X18712131Y-7436318D01*
X18716998Y-7420276D01*
X18724900Y-7405492D01*
X18735534Y-7392534D01*
X18748492Y-7381900D01*
X18750009Y-7381089D01*
X18763276Y-7373998D01*
X18779318Y-7369131D01*
X18796000Y-7367488D01*
X18812682Y-7369131D01*
X18812682Y-7369131D01*
G37*
G36*
X15510682Y-7369131D02*
G01*
X15526724Y-7373998D01*
X15541508Y-7381899D01*
X15554466Y-7392534D01*
X15565100Y-7405492D01*
X15565100Y-7405492D01*
X15573002Y-7420276D01*
X15577869Y-7436318D01*
X15579100Y-7448820D01*
X15579100Y-7537180D01*
X15577869Y-7549682D01*
X15573002Y-7565724D01*
X15565911Y-7578991D01*
X15565100Y-7580508D01*
X15554466Y-7593466D01*
X15541508Y-7604100D01*
X15541508Y-7604100D01*
X15526724Y-7612002D01*
X15510682Y-7616869D01*
X15494000Y-7618512D01*
X15477318Y-7616869D01*
X15461276Y-7612002D01*
X15446492Y-7604100D01*
X15446492Y-7604100D01*
X15433534Y-7593466D01*
X15422900Y-7580508D01*
X15422089Y-7578991D01*
X15414998Y-7565724D01*
X15410131Y-7549682D01*
X15408900Y-7537180D01*
X15408900Y-7448820D01*
X15410131Y-7436318D01*
X15414998Y-7420276D01*
X15422899Y-7405492D01*
X15433534Y-7392534D01*
X15446492Y-7381900D01*
X15448009Y-7381089D01*
X15461276Y-7373998D01*
X15477318Y-7369131D01*
X15494000Y-7367488D01*
X15510682Y-7369131D01*
X15510682Y-7369131D01*
G37*
G36*
X19066682Y-7369131D02*
G01*
X19082724Y-7373998D01*
X19097508Y-7381899D01*
X19110466Y-7392534D01*
X19121100Y-7405492D01*
X19121101Y-7405492D01*
X19129002Y-7420276D01*
X19133869Y-7436318D01*
X19135100Y-7448820D01*
X19135100Y-7537180D01*
X19133869Y-7549682D01*
X19129002Y-7565724D01*
X19121911Y-7578991D01*
X19121100Y-7580508D01*
X19110466Y-7593466D01*
X19097508Y-7604100D01*
X19097508Y-7604100D01*
X19082724Y-7612002D01*
X19066682Y-7616869D01*
X19050000Y-7618512D01*
X19033318Y-7616869D01*
X19017276Y-7612002D01*
X19002493Y-7604100D01*
X19002492Y-7604100D01*
X18989534Y-7593466D01*
X18978900Y-7580508D01*
X18978089Y-7578991D01*
X18970998Y-7565724D01*
X18966131Y-7549682D01*
X18964900Y-7537180D01*
X18964900Y-7448820D01*
X18966131Y-7436318D01*
X18970998Y-7420276D01*
X18978900Y-7405492D01*
X18989534Y-7392534D01*
X19002492Y-7381900D01*
X19004009Y-7381089D01*
X19017276Y-7373998D01*
X19033318Y-7369131D01*
X19050000Y-7367488D01*
X19066682Y-7369131D01*
X19066682Y-7369131D01*
G37*
G36*
X15256682Y-7369131D02*
G01*
X15272724Y-7373998D01*
X15287508Y-7381899D01*
X15300466Y-7392534D01*
X15311100Y-7405492D01*
X15311100Y-7405492D01*
X15319002Y-7420276D01*
X15323869Y-7436318D01*
X15325100Y-7448820D01*
X15325100Y-7537180D01*
X15323869Y-7549682D01*
X15319002Y-7565724D01*
X15311911Y-7578991D01*
X15311100Y-7580508D01*
X15300466Y-7593466D01*
X15287508Y-7604100D01*
X15287508Y-7604100D01*
X15272724Y-7612002D01*
X15256682Y-7616869D01*
X15240000Y-7618512D01*
X15223318Y-7616869D01*
X15207276Y-7612002D01*
X15192492Y-7604100D01*
X15192492Y-7604100D01*
X15179534Y-7593466D01*
X15168900Y-7580508D01*
X15168089Y-7578991D01*
X15160998Y-7565724D01*
X15156131Y-7549682D01*
X15154900Y-7537180D01*
X15154900Y-7448820D01*
X15156131Y-7436318D01*
X15160998Y-7420276D01*
X15168899Y-7405492D01*
X15179534Y-7392534D01*
X15192492Y-7381900D01*
X15194009Y-7381089D01*
X15207276Y-7373998D01*
X15223318Y-7369131D01*
X15240000Y-7367488D01*
X15256682Y-7369131D01*
X15256682Y-7369131D01*
G37*
G36*
X16018682Y-7369131D02*
G01*
X16034724Y-7373998D01*
X16049508Y-7381899D01*
X16062466Y-7392534D01*
X16073100Y-7405492D01*
X16073100Y-7405492D01*
X16081002Y-7420276D01*
X16085869Y-7436318D01*
X16087100Y-7448820D01*
X16087100Y-7537180D01*
X16085869Y-7549682D01*
X16081002Y-7565724D01*
X16073911Y-7578991D01*
X16073100Y-7580508D01*
X16062466Y-7593466D01*
X16049508Y-7604100D01*
X16049508Y-7604100D01*
X16034724Y-7612002D01*
X16018682Y-7616869D01*
X16002000Y-7618512D01*
X15985318Y-7616869D01*
X15969276Y-7612002D01*
X15954492Y-7604100D01*
X15954492Y-7604100D01*
X15941534Y-7593466D01*
X15930900Y-7580508D01*
X15930089Y-7578991D01*
X15922998Y-7565724D01*
X15918131Y-7549682D01*
X15916900Y-7537180D01*
X15916900Y-7448820D01*
X15918131Y-7436318D01*
X15922998Y-7420276D01*
X15930899Y-7405492D01*
X15941534Y-7392534D01*
X15954492Y-7381900D01*
X15956009Y-7381089D01*
X15969276Y-7373998D01*
X15985318Y-7369131D01*
X16002000Y-7367488D01*
X16018682Y-7369131D01*
X16018682Y-7369131D01*
G37*
G36*
X17357100Y-7618100D02*
G01*
X17186900Y-7618100D01*
X17186900Y-7367900D01*
X17357100Y-7367900D01*
X17357100Y-7618100D01*
X17357100Y-7618100D01*
G37*
G36*
X15071100Y-7618100D02*
G01*
X14900900Y-7618100D01*
X14900900Y-7367900D01*
X15071100Y-7367900D01*
X15071100Y-7618100D01*
X15071100Y-7618100D01*
G37*
G36*
X18558682Y-6607131D02*
G01*
X18574724Y-6611998D01*
X18589508Y-6619899D01*
X18602466Y-6630534D01*
X18613100Y-6643492D01*
X18613101Y-6643492D01*
X18621002Y-6658276D01*
X18625869Y-6674318D01*
X18627100Y-6686820D01*
X18627100Y-6775180D01*
X18625869Y-6787682D01*
X18621002Y-6803724D01*
X18613911Y-6816991D01*
X18613100Y-6818508D01*
X18602466Y-6831466D01*
X18589508Y-6842100D01*
X18589508Y-6842100D01*
X18574724Y-6850002D01*
X18558682Y-6854869D01*
X18542000Y-6856512D01*
X18525318Y-6854869D01*
X18509276Y-6850002D01*
X18494493Y-6842100D01*
X18494492Y-6842100D01*
X18481534Y-6831466D01*
X18470900Y-6818508D01*
X18470089Y-6816991D01*
X18462998Y-6803724D01*
X18458131Y-6787682D01*
X18456900Y-6775180D01*
X18456900Y-6686820D01*
X18458131Y-6674318D01*
X18462998Y-6658276D01*
X18470900Y-6643492D01*
X18481534Y-6630534D01*
X18494492Y-6619900D01*
X18496009Y-6619089D01*
X18509276Y-6611998D01*
X18525318Y-6607131D01*
X18542000Y-6605488D01*
X18558682Y-6607131D01*
X18558682Y-6607131D01*
G37*
G36*
X16526682Y-6607131D02*
G01*
X16542724Y-6611998D01*
X16557508Y-6619899D01*
X16570466Y-6630534D01*
X16581100Y-6643492D01*
X16581100Y-6643492D01*
X16589002Y-6658276D01*
X16593869Y-6674318D01*
X16595100Y-6686820D01*
X16595100Y-6775180D01*
X16593869Y-6787682D01*
X16589002Y-6803724D01*
X16581911Y-6816991D01*
X16581100Y-6818508D01*
X16570466Y-6831466D01*
X16557508Y-6842100D01*
X16557508Y-6842100D01*
X16542724Y-6850002D01*
X16526682Y-6854869D01*
X16510000Y-6856512D01*
X16493318Y-6854869D01*
X16477276Y-6850002D01*
X16462492Y-6842100D01*
X16462492Y-6842100D01*
X16449534Y-6831466D01*
X16438900Y-6818508D01*
X16438089Y-6816991D01*
X16430998Y-6803724D01*
X16426131Y-6787682D01*
X16424900Y-6775180D01*
X16424900Y-6686820D01*
X16426131Y-6674318D01*
X16430998Y-6658276D01*
X16438899Y-6643492D01*
X16449534Y-6630534D01*
X16462492Y-6619900D01*
X16464009Y-6619089D01*
X16477276Y-6611998D01*
X16493318Y-6607131D01*
X16510000Y-6605488D01*
X16526682Y-6607131D01*
X16526682Y-6607131D01*
G37*
G36*
X17288682Y-6607131D02*
G01*
X17304724Y-6611998D01*
X17319508Y-6619899D01*
X17332466Y-6630534D01*
X17343100Y-6643492D01*
X17343101Y-6643492D01*
X17351002Y-6658276D01*
X17355869Y-6674318D01*
X17357100Y-6686820D01*
X17357100Y-6775180D01*
X17355869Y-6787682D01*
X17351002Y-6803724D01*
X17343911Y-6816991D01*
X17343100Y-6818508D01*
X17332466Y-6831466D01*
X17319508Y-6842100D01*
X17319508Y-6842100D01*
X17304724Y-6850002D01*
X17288682Y-6854869D01*
X17272000Y-6856512D01*
X17255318Y-6854869D01*
X17239276Y-6850002D01*
X17224493Y-6842100D01*
X17224492Y-6842100D01*
X17211534Y-6831466D01*
X17200900Y-6818508D01*
X17200089Y-6816991D01*
X17192998Y-6803724D01*
X17188131Y-6787682D01*
X17186900Y-6775180D01*
X17186900Y-6686820D01*
X17188131Y-6674318D01*
X17192998Y-6658276D01*
X17200900Y-6643492D01*
X17211534Y-6630534D01*
X17224492Y-6619900D01*
X17226009Y-6619089D01*
X17239276Y-6611998D01*
X17255318Y-6607131D01*
X17272000Y-6605488D01*
X17288682Y-6607131D01*
X17288682Y-6607131D01*
G37*
G36*
X17542682Y-6607131D02*
G01*
X17558724Y-6611998D01*
X17573508Y-6619899D01*
X17586466Y-6630534D01*
X17597100Y-6643492D01*
X17597101Y-6643492D01*
X17605002Y-6658276D01*
X17609869Y-6674318D01*
X17611100Y-6686820D01*
X17611100Y-6775180D01*
X17609869Y-6787682D01*
X17605002Y-6803724D01*
X17597911Y-6816991D01*
X17597100Y-6818508D01*
X17586466Y-6831466D01*
X17573508Y-6842100D01*
X17573508Y-6842100D01*
X17558724Y-6850002D01*
X17542682Y-6854869D01*
X17526000Y-6856512D01*
X17509318Y-6854869D01*
X17493276Y-6850002D01*
X17478493Y-6842100D01*
X17478492Y-6842100D01*
X17465534Y-6831466D01*
X17454900Y-6818508D01*
X17454089Y-6816991D01*
X17446998Y-6803724D01*
X17442131Y-6787682D01*
X17440900Y-6775180D01*
X17440900Y-6686820D01*
X17442131Y-6674318D01*
X17446998Y-6658276D01*
X17454900Y-6643492D01*
X17465534Y-6630534D01*
X17478492Y-6619900D01*
X17480009Y-6619089D01*
X17493276Y-6611998D01*
X17509318Y-6607131D01*
X17526000Y-6605488D01*
X17542682Y-6607131D01*
X17542682Y-6607131D01*
G37*
G36*
X16780682Y-6607131D02*
G01*
X16796724Y-6611998D01*
X16811508Y-6619899D01*
X16824466Y-6630534D01*
X16835100Y-6643492D01*
X16835101Y-6643492D01*
X16843002Y-6658276D01*
X16847869Y-6674318D01*
X16849100Y-6686820D01*
X16849100Y-6775180D01*
X16847869Y-6787682D01*
X16843002Y-6803724D01*
X16835911Y-6816991D01*
X16835100Y-6818508D01*
X16824466Y-6831466D01*
X16811508Y-6842100D01*
X16811508Y-6842100D01*
X16796724Y-6850002D01*
X16780682Y-6854869D01*
X16764000Y-6856512D01*
X16747318Y-6854869D01*
X16731276Y-6850002D01*
X16716492Y-6842100D01*
X16716492Y-6842100D01*
X16703534Y-6831466D01*
X16692900Y-6818508D01*
X16692089Y-6816991D01*
X16684998Y-6803724D01*
X16680131Y-6787682D01*
X16678900Y-6775180D01*
X16678900Y-6686820D01*
X16680131Y-6674318D01*
X16684998Y-6658276D01*
X16692899Y-6643492D01*
X16703534Y-6630534D01*
X16716492Y-6619900D01*
X16718009Y-6619089D01*
X16731276Y-6611998D01*
X16747318Y-6607131D01*
X16764000Y-6605488D01*
X16780682Y-6607131D01*
X16780682Y-6607131D01*
G37*
G36*
X15510682Y-6607131D02*
G01*
X15526724Y-6611998D01*
X15541508Y-6619899D01*
X15554466Y-6630534D01*
X15565100Y-6643492D01*
X15565100Y-6643492D01*
X15573002Y-6658276D01*
X15577869Y-6674318D01*
X15579100Y-6686820D01*
X15579100Y-6775180D01*
X15577869Y-6787682D01*
X15573002Y-6803724D01*
X15565911Y-6816991D01*
X15565100Y-6818508D01*
X15554466Y-6831466D01*
X15541508Y-6842100D01*
X15541508Y-6842100D01*
X15526724Y-6850002D01*
X15510682Y-6854869D01*
X15494000Y-6856512D01*
X15477318Y-6854869D01*
X15461276Y-6850002D01*
X15446492Y-6842100D01*
X15446492Y-6842100D01*
X15433534Y-6831466D01*
X15422900Y-6818508D01*
X15422089Y-6816991D01*
X15414998Y-6803724D01*
X15410131Y-6787682D01*
X15408900Y-6775180D01*
X15408900Y-6686820D01*
X15410131Y-6674318D01*
X15414998Y-6658276D01*
X15422899Y-6643492D01*
X15433534Y-6630534D01*
X15446492Y-6619900D01*
X15448009Y-6619089D01*
X15461276Y-6611998D01*
X15477318Y-6607131D01*
X15494000Y-6605488D01*
X15510682Y-6607131D01*
X15510682Y-6607131D01*
G37*
G36*
X15256682Y-6607131D02*
G01*
X15272724Y-6611998D01*
X15287508Y-6619899D01*
X15300466Y-6630534D01*
X15311100Y-6643492D01*
X15311100Y-6643492D01*
X15319002Y-6658276D01*
X15323869Y-6674318D01*
X15325100Y-6686820D01*
X15325100Y-6775180D01*
X15323869Y-6787682D01*
X15319002Y-6803724D01*
X15311911Y-6816991D01*
X15311100Y-6818508D01*
X15300466Y-6831466D01*
X15287508Y-6842100D01*
X15287508Y-6842100D01*
X15272724Y-6850002D01*
X15256682Y-6854869D01*
X15240000Y-6856512D01*
X15223318Y-6854869D01*
X15207276Y-6850002D01*
X15192492Y-6842100D01*
X15192492Y-6842100D01*
X15179534Y-6831466D01*
X15168900Y-6818508D01*
X15168089Y-6816991D01*
X15160998Y-6803724D01*
X15156131Y-6787682D01*
X15154900Y-6775180D01*
X15154900Y-6686820D01*
X15156131Y-6674318D01*
X15160998Y-6658276D01*
X15168899Y-6643492D01*
X15179534Y-6630534D01*
X15192492Y-6619900D01*
X15194009Y-6619089D01*
X15207276Y-6611998D01*
X15223318Y-6607131D01*
X15240000Y-6605488D01*
X15256682Y-6607131D01*
X15256682Y-6607131D01*
G37*
G36*
X15002682Y-6607131D02*
G01*
X15018724Y-6611998D01*
X15033508Y-6619899D01*
X15046466Y-6630534D01*
X15057100Y-6643492D01*
X15057100Y-6643492D01*
X15065002Y-6658276D01*
X15069869Y-6674318D01*
X15071100Y-6686820D01*
X15071100Y-6775180D01*
X15069869Y-6787682D01*
X15065002Y-6803724D01*
X15057911Y-6816991D01*
X15057100Y-6818508D01*
X15046466Y-6831466D01*
X15033508Y-6842100D01*
X15033508Y-6842100D01*
X15018724Y-6850002D01*
X15002682Y-6854869D01*
X14986000Y-6856512D01*
X14969318Y-6854869D01*
X14953276Y-6850002D01*
X14938492Y-6842100D01*
X14938492Y-6842100D01*
X14925534Y-6831466D01*
X14914900Y-6818508D01*
X14914089Y-6816991D01*
X14906998Y-6803724D01*
X14902131Y-6787682D01*
X14900900Y-6775180D01*
X14900900Y-6686820D01*
X14902131Y-6674318D01*
X14906998Y-6658276D01*
X14914899Y-6643492D01*
X14925534Y-6630534D01*
X14938492Y-6619900D01*
X14940009Y-6619089D01*
X14953276Y-6611998D01*
X14969318Y-6607131D01*
X14986000Y-6605488D01*
X15002682Y-6607131D01*
X15002682Y-6607131D01*
G37*
G36*
X15764682Y-6607131D02*
G01*
X15780724Y-6611998D01*
X15795508Y-6619899D01*
X15808466Y-6630534D01*
X15819100Y-6643492D01*
X15819100Y-6643492D01*
X15827002Y-6658276D01*
X15831869Y-6674318D01*
X15833100Y-6686820D01*
X15833100Y-6775180D01*
X15831869Y-6787682D01*
X15827002Y-6803724D01*
X15819911Y-6816991D01*
X15819100Y-6818508D01*
X15808466Y-6831466D01*
X15795508Y-6842100D01*
X15795508Y-6842100D01*
X15780724Y-6850002D01*
X15764682Y-6854869D01*
X15748000Y-6856512D01*
X15731318Y-6854869D01*
X15715276Y-6850002D01*
X15700492Y-6842100D01*
X15700492Y-6842100D01*
X15687534Y-6831466D01*
X15676900Y-6818508D01*
X15676089Y-6816991D01*
X15668998Y-6803724D01*
X15664131Y-6787682D01*
X15662900Y-6775180D01*
X15662900Y-6686820D01*
X15664131Y-6674318D01*
X15668998Y-6658276D01*
X15676899Y-6643492D01*
X15687534Y-6630534D01*
X15700492Y-6619900D01*
X15702009Y-6619089D01*
X15715276Y-6611998D01*
X15731318Y-6607131D01*
X15748000Y-6605488D01*
X15764682Y-6607131D01*
X15764682Y-6607131D01*
G37*
G36*
X17796682Y-6607131D02*
G01*
X17812724Y-6611998D01*
X17827508Y-6619899D01*
X17840466Y-6630534D01*
X17851100Y-6643492D01*
X17851101Y-6643492D01*
X17859002Y-6658276D01*
X17863869Y-6674318D01*
X17865100Y-6686820D01*
X17865100Y-6775180D01*
X17863869Y-6787682D01*
X17859002Y-6803724D01*
X17851911Y-6816991D01*
X17851100Y-6818508D01*
X17840466Y-6831466D01*
X17827508Y-6842100D01*
X17827508Y-6842100D01*
X17812724Y-6850002D01*
X17796682Y-6854869D01*
X17780000Y-6856512D01*
X17763318Y-6854869D01*
X17747276Y-6850002D01*
X17732493Y-6842100D01*
X17732492Y-6842100D01*
X17719534Y-6831466D01*
X17708900Y-6818508D01*
X17708089Y-6816991D01*
X17700998Y-6803724D01*
X17696131Y-6787682D01*
X17694900Y-6775180D01*
X17694900Y-6686820D01*
X17696131Y-6674318D01*
X17700998Y-6658276D01*
X17708900Y-6643492D01*
X17719534Y-6630534D01*
X17732492Y-6619900D01*
X17734009Y-6619089D01*
X17747276Y-6611998D01*
X17763318Y-6607131D01*
X17780000Y-6605488D01*
X17796682Y-6607131D01*
X17796682Y-6607131D01*
G37*
G36*
X19066682Y-6607131D02*
G01*
X19082724Y-6611998D01*
X19097508Y-6619899D01*
X19110466Y-6630534D01*
X19121100Y-6643492D01*
X19121101Y-6643492D01*
X19129002Y-6658276D01*
X19133869Y-6674318D01*
X19135100Y-6686820D01*
X19135100Y-6775180D01*
X19133869Y-6787682D01*
X19129002Y-6803724D01*
X19121911Y-6816991D01*
X19121100Y-6818508D01*
X19110466Y-6831466D01*
X19097508Y-6842100D01*
X19097508Y-6842100D01*
X19082724Y-6850002D01*
X19066682Y-6854869D01*
X19050000Y-6856512D01*
X19033318Y-6854869D01*
X19017276Y-6850002D01*
X19002493Y-6842100D01*
X19002492Y-6842100D01*
X18989534Y-6831466D01*
X18978900Y-6818508D01*
X18978089Y-6816991D01*
X18970998Y-6803724D01*
X18966131Y-6787682D01*
X18964900Y-6775180D01*
X18964900Y-6686820D01*
X18966131Y-6674318D01*
X18970998Y-6658276D01*
X18978900Y-6643492D01*
X18989534Y-6630534D01*
X19002492Y-6619900D01*
X19004009Y-6619089D01*
X19017276Y-6611998D01*
X19033318Y-6607131D01*
X19050000Y-6605488D01*
X19066682Y-6607131D01*
X19066682Y-6607131D01*
G37*
G36*
X18812682Y-6607131D02*
G01*
X18828724Y-6611998D01*
X18843508Y-6619899D01*
X18856466Y-6630534D01*
X18867100Y-6643492D01*
X18867101Y-6643492D01*
X18875002Y-6658276D01*
X18879869Y-6674318D01*
X18881100Y-6686820D01*
X18881100Y-6775180D01*
X18879869Y-6787682D01*
X18875002Y-6803724D01*
X18867911Y-6816991D01*
X18867100Y-6818508D01*
X18856466Y-6831466D01*
X18843508Y-6842100D01*
X18843508Y-6842100D01*
X18828724Y-6850002D01*
X18812682Y-6854869D01*
X18796000Y-6856512D01*
X18779318Y-6854869D01*
X18763276Y-6850002D01*
X18748493Y-6842100D01*
X18748492Y-6842100D01*
X18735534Y-6831466D01*
X18724900Y-6818508D01*
X18724089Y-6816991D01*
X18716998Y-6803724D01*
X18712131Y-6787682D01*
X18710900Y-6775180D01*
X18710900Y-6686820D01*
X18712131Y-6674318D01*
X18716998Y-6658276D01*
X18724900Y-6643492D01*
X18735534Y-6630534D01*
X18748492Y-6619900D01*
X18750009Y-6619089D01*
X18763276Y-6611998D01*
X18779318Y-6607131D01*
X18796000Y-6605488D01*
X18812682Y-6607131D01*
X18812682Y-6607131D01*
G37*
G36*
X16018682Y-6607131D02*
G01*
X16034724Y-6611998D01*
X16049508Y-6619899D01*
X16062466Y-6630534D01*
X16073100Y-6643492D01*
X16073100Y-6643492D01*
X16081002Y-6658276D01*
X16085869Y-6674318D01*
X16087100Y-6686820D01*
X16087100Y-6775180D01*
X16085869Y-6787682D01*
X16081002Y-6803724D01*
X16073911Y-6816991D01*
X16073100Y-6818508D01*
X16062466Y-6831466D01*
X16049508Y-6842100D01*
X16049508Y-6842100D01*
X16034724Y-6850002D01*
X16018682Y-6854869D01*
X16002000Y-6856512D01*
X15985318Y-6854869D01*
X15969276Y-6850002D01*
X15954492Y-6842100D01*
X15954492Y-6842100D01*
X15941534Y-6831466D01*
X15930900Y-6818508D01*
X15930089Y-6816991D01*
X15922998Y-6803724D01*
X15918131Y-6787682D01*
X15916900Y-6775180D01*
X15916900Y-6686820D01*
X15918131Y-6674318D01*
X15922998Y-6658276D01*
X15930899Y-6643492D01*
X15941534Y-6630534D01*
X15954492Y-6619900D01*
X15956009Y-6619089D01*
X15969276Y-6611998D01*
X15985318Y-6607131D01*
X16002000Y-6605488D01*
X16018682Y-6607131D01*
X16018682Y-6607131D01*
G37*
G36*
X18304682Y-6607131D02*
G01*
X18320724Y-6611998D01*
X18335508Y-6619899D01*
X18348466Y-6630534D01*
X18359100Y-6643492D01*
X18359101Y-6643492D01*
X18367002Y-6658276D01*
X18371869Y-6674318D01*
X18373100Y-6686820D01*
X18373100Y-6775180D01*
X18371869Y-6787682D01*
X18367002Y-6803724D01*
X18359911Y-6816991D01*
X18359100Y-6818508D01*
X18348466Y-6831466D01*
X18335508Y-6842100D01*
X18335508Y-6842100D01*
X18320724Y-6850002D01*
X18304682Y-6854869D01*
X18288000Y-6856512D01*
X18271318Y-6854869D01*
X18255276Y-6850002D01*
X18240493Y-6842100D01*
X18240492Y-6842100D01*
X18227534Y-6831466D01*
X18216900Y-6818508D01*
X18216089Y-6816991D01*
X18208998Y-6803724D01*
X18204131Y-6787682D01*
X18202900Y-6775180D01*
X18202900Y-6686820D01*
X18204131Y-6674318D01*
X18208998Y-6658276D01*
X18216900Y-6643492D01*
X18227534Y-6630534D01*
X18240492Y-6619900D01*
X18242009Y-6619089D01*
X18255276Y-6611998D01*
X18271318Y-6607131D01*
X18288000Y-6605488D01*
X18304682Y-6607131D01*
X18304682Y-6607131D01*
G37*
G36*
X18050682Y-6607131D02*
G01*
X18066724Y-6611998D01*
X18081508Y-6619899D01*
X18094466Y-6630534D01*
X18105100Y-6643492D01*
X18105101Y-6643492D01*
X18113002Y-6658276D01*
X18117869Y-6674318D01*
X18119100Y-6686820D01*
X18119100Y-6775180D01*
X18117869Y-6787682D01*
X18113002Y-6803724D01*
X18105911Y-6816991D01*
X18105100Y-6818508D01*
X18094466Y-6831466D01*
X18081508Y-6842100D01*
X18081508Y-6842100D01*
X18066724Y-6850002D01*
X18050682Y-6854869D01*
X18034000Y-6856512D01*
X18017318Y-6854869D01*
X18001276Y-6850002D01*
X17986493Y-6842100D01*
X17986492Y-6842100D01*
X17973534Y-6831466D01*
X17962900Y-6818508D01*
X17962089Y-6816991D01*
X17954998Y-6803724D01*
X17950131Y-6787682D01*
X17948900Y-6775180D01*
X17948900Y-6686820D01*
X17950131Y-6674318D01*
X17954998Y-6658276D01*
X17962900Y-6643492D01*
X17973534Y-6630534D01*
X17986492Y-6619900D01*
X17988009Y-6619089D01*
X18001276Y-6611998D01*
X18017318Y-6607131D01*
X18034000Y-6605488D01*
X18050682Y-6607131D01*
X18050682Y-6607131D01*
G37*
G36*
X16272682Y-6607131D02*
G01*
X16288724Y-6611998D01*
X16303508Y-6619899D01*
X16316466Y-6630534D01*
X16327100Y-6643492D01*
X16327100Y-6643492D01*
X16335002Y-6658276D01*
X16339869Y-6674318D01*
X16341100Y-6686820D01*
X16341100Y-6775180D01*
X16339869Y-6787682D01*
X16335002Y-6803724D01*
X16327911Y-6816991D01*
X16327100Y-6818508D01*
X16316466Y-6831466D01*
X16303508Y-6842100D01*
X16303508Y-6842100D01*
X16288724Y-6850002D01*
X16272682Y-6854869D01*
X16256000Y-6856512D01*
X16239318Y-6854869D01*
X16223276Y-6850002D01*
X16208492Y-6842100D01*
X16208492Y-6842100D01*
X16195534Y-6831466D01*
X16184900Y-6818508D01*
X16184089Y-6816991D01*
X16176998Y-6803724D01*
X16172131Y-6787682D01*
X16170900Y-6775180D01*
X16170900Y-6686820D01*
X16172131Y-6674318D01*
X16176998Y-6658276D01*
X16184899Y-6643492D01*
X16195534Y-6630534D01*
X16208492Y-6619900D01*
X16210009Y-6619089D01*
X16223276Y-6611998D01*
X16239318Y-6607131D01*
X16256000Y-6605488D01*
X16272682Y-6607131D01*
X16272682Y-6607131D01*
G37*
G36*
X16526682Y-4615131D02*
G01*
X16542724Y-4619998D01*
X16555991Y-4627089D01*
X16557508Y-4627900D01*
X16570466Y-4638534D01*
X16581100Y-4651492D01*
X16581100Y-4651492D01*
X16589002Y-4666276D01*
X16593869Y-4682318D01*
X16595512Y-4699000D01*
X16593869Y-4715682D01*
X16589002Y-4731724D01*
X16581911Y-4744991D01*
X16581100Y-4746508D01*
X16570466Y-4759466D01*
X16557508Y-4770100D01*
X16557508Y-4770101D01*
X16542724Y-4778002D01*
X16526682Y-4782869D01*
X16514180Y-4784100D01*
X16505820Y-4784100D01*
X16493318Y-4782869D01*
X16477276Y-4778002D01*
X16462492Y-4770101D01*
X16462492Y-4770100D01*
X16449534Y-4759466D01*
X16438900Y-4746508D01*
X16438089Y-4744991D01*
X16430998Y-4731724D01*
X16426131Y-4715682D01*
X16424488Y-4699000D01*
X16426131Y-4682318D01*
X16430998Y-4666276D01*
X16438899Y-4651492D01*
X16438900Y-4651492D01*
X16449534Y-4638534D01*
X16462492Y-4627900D01*
X16464009Y-4627089D01*
X16477276Y-4619998D01*
X16493318Y-4615131D01*
X16505820Y-4613900D01*
X16514180Y-4613900D01*
X16526682Y-4615131D01*
X16526682Y-4615131D01*
G37*
G36*
X17357100Y-4784100D02*
G01*
X17186900Y-4784100D01*
X17186900Y-4613900D01*
X17357100Y-4613900D01*
X17357100Y-4784100D01*
X17357100Y-4784100D01*
G37*
G36*
X17034682Y-4615131D02*
G01*
X17050724Y-4619998D01*
X17063991Y-4627089D01*
X17065508Y-4627900D01*
X17078466Y-4638534D01*
X17089100Y-4651492D01*
X17089101Y-4651492D01*
X17097002Y-4666276D01*
X17101869Y-4682318D01*
X17103512Y-4699000D01*
X17101869Y-4715682D01*
X17097002Y-4731724D01*
X17089911Y-4744991D01*
X17089100Y-4746508D01*
X17078466Y-4759466D01*
X17065508Y-4770100D01*
X17065508Y-4770101D01*
X17050724Y-4778002D01*
X17034682Y-4782869D01*
X17022180Y-4784100D01*
X17013820Y-4784100D01*
X17001318Y-4782869D01*
X16985276Y-4778002D01*
X16970492Y-4770101D01*
X16970492Y-4770100D01*
X16957534Y-4759466D01*
X16946900Y-4746508D01*
X16946089Y-4744991D01*
X16938998Y-4731724D01*
X16934131Y-4715682D01*
X16932488Y-4699000D01*
X16934131Y-4682318D01*
X16938998Y-4666276D01*
X16946900Y-4651492D01*
X16946900Y-4651492D01*
X16957534Y-4638534D01*
X16970492Y-4627900D01*
X16972009Y-4627089D01*
X16985276Y-4619998D01*
X17001318Y-4615131D01*
X17013820Y-4613900D01*
X17022180Y-4613900D01*
X17034682Y-4615131D01*
X17034682Y-4615131D01*
G37*
G36*
X16780682Y-4615131D02*
G01*
X16796724Y-4619998D01*
X16809991Y-4627089D01*
X16811508Y-4627900D01*
X16824466Y-4638534D01*
X16835100Y-4651492D01*
X16835101Y-4651492D01*
X16843002Y-4666276D01*
X16847869Y-4682318D01*
X16849512Y-4699000D01*
X16847869Y-4715682D01*
X16843002Y-4731724D01*
X16835911Y-4744991D01*
X16835100Y-4746508D01*
X16824466Y-4759466D01*
X16811508Y-4770100D01*
X16811508Y-4770101D01*
X16796724Y-4778002D01*
X16780682Y-4782869D01*
X16768180Y-4784100D01*
X16759820Y-4784100D01*
X16747318Y-4782869D01*
X16731276Y-4778002D01*
X16716492Y-4770101D01*
X16716492Y-4770100D01*
X16703534Y-4759466D01*
X16692900Y-4746508D01*
X16692089Y-4744991D01*
X16684998Y-4731724D01*
X16680131Y-4715682D01*
X16678488Y-4699000D01*
X16680131Y-4682318D01*
X16684998Y-4666276D01*
X16692899Y-4651492D01*
X16692900Y-4651492D01*
X16703534Y-4638534D01*
X16716492Y-4627900D01*
X16718009Y-4627089D01*
X16731276Y-4619998D01*
X16747318Y-4615131D01*
X16759820Y-4613900D01*
X16768180Y-4613900D01*
X16780682Y-4615131D01*
X16780682Y-4615131D01*
G37*
G36*
X13986682Y-4615131D02*
G01*
X14002724Y-4619998D01*
X14015991Y-4627089D01*
X14017508Y-4627900D01*
X14030466Y-4638534D01*
X14041100Y-4651492D01*
X14041100Y-4651492D01*
X14049002Y-4666276D01*
X14053869Y-4682318D01*
X14055512Y-4699000D01*
X14053869Y-4715682D01*
X14049002Y-4731724D01*
X14041911Y-4744991D01*
X14041100Y-4746508D01*
X14030466Y-4759466D01*
X14017508Y-4770100D01*
X14017508Y-4770101D01*
X14002724Y-4778002D01*
X13986682Y-4782869D01*
X13974180Y-4784100D01*
X13965820Y-4784100D01*
X13953318Y-4782869D01*
X13937276Y-4778002D01*
X13922492Y-4770101D01*
X13922492Y-4770100D01*
X13909534Y-4759466D01*
X13898900Y-4746508D01*
X13898089Y-4744991D01*
X13890998Y-4731724D01*
X13886131Y-4715682D01*
X13884488Y-4699000D01*
X13886131Y-4682318D01*
X13890998Y-4666276D01*
X13898899Y-4651492D01*
X13898900Y-4651492D01*
X13909534Y-4638534D01*
X13922492Y-4627900D01*
X13924009Y-4627089D01*
X13937276Y-4619998D01*
X13953318Y-4615131D01*
X13965820Y-4613900D01*
X13974180Y-4613900D01*
X13986682Y-4615131D01*
X13986682Y-4615131D01*
G37*
G36*
X14240682Y-4615131D02*
G01*
X14256724Y-4619998D01*
X14269991Y-4627089D01*
X14271508Y-4627900D01*
X14284466Y-4638534D01*
X14295100Y-4651492D01*
X14295100Y-4651492D01*
X14303002Y-4666276D01*
X14307869Y-4682318D01*
X14309512Y-4699000D01*
X14307869Y-4715682D01*
X14303002Y-4731724D01*
X14295911Y-4744991D01*
X14295100Y-4746508D01*
X14284466Y-4759466D01*
X14271508Y-4770100D01*
X14271508Y-4770101D01*
X14256724Y-4778002D01*
X14240682Y-4782869D01*
X14228180Y-4784100D01*
X14219820Y-4784100D01*
X14207318Y-4782869D01*
X14191276Y-4778002D01*
X14176492Y-4770101D01*
X14176492Y-4770100D01*
X14163534Y-4759466D01*
X14152900Y-4746508D01*
X14152089Y-4744991D01*
X14144998Y-4731724D01*
X14140131Y-4715682D01*
X14138488Y-4699000D01*
X14140131Y-4682318D01*
X14144998Y-4666276D01*
X14152899Y-4651492D01*
X14152900Y-4651492D01*
X14163534Y-4638534D01*
X14176492Y-4627900D01*
X14178009Y-4627089D01*
X14191276Y-4619998D01*
X14207318Y-4615131D01*
X14219820Y-4613900D01*
X14228180Y-4613900D01*
X14240682Y-4615131D01*
X14240682Y-4615131D01*
G37*
G36*
X14748682Y-4615131D02*
G01*
X14764724Y-4619998D01*
X14777991Y-4627089D01*
X14779508Y-4627900D01*
X14792466Y-4638534D01*
X14803100Y-4651492D01*
X14803100Y-4651492D01*
X14811002Y-4666276D01*
X14815869Y-4682318D01*
X14817512Y-4699000D01*
X14815869Y-4715682D01*
X14811002Y-4731724D01*
X14803911Y-4744991D01*
X14803100Y-4746508D01*
X14792466Y-4759466D01*
X14779508Y-4770100D01*
X14779508Y-4770101D01*
X14764724Y-4778002D01*
X14748682Y-4782869D01*
X14736180Y-4784100D01*
X14727820Y-4784100D01*
X14715318Y-4782869D01*
X14699276Y-4778002D01*
X14684492Y-4770101D01*
X14684492Y-4770100D01*
X14671534Y-4759466D01*
X14660900Y-4746508D01*
X14660089Y-4744991D01*
X14652998Y-4731724D01*
X14648131Y-4715682D01*
X14646488Y-4699000D01*
X14648131Y-4682318D01*
X14652998Y-4666276D01*
X14660899Y-4651492D01*
X14660900Y-4651492D01*
X14671534Y-4638534D01*
X14684492Y-4627900D01*
X14686009Y-4627089D01*
X14699276Y-4619998D01*
X14715318Y-4615131D01*
X14727820Y-4613900D01*
X14736180Y-4613900D01*
X14748682Y-4615131D01*
X14748682Y-4615131D01*
G37*
G36*
X15002682Y-4615131D02*
G01*
X15018724Y-4619998D01*
X15031991Y-4627089D01*
X15033508Y-4627900D01*
X15046466Y-4638534D01*
X15057100Y-4651492D01*
X15057100Y-4651492D01*
X15065002Y-4666276D01*
X15069869Y-4682318D01*
X15071512Y-4699000D01*
X15069869Y-4715682D01*
X15065002Y-4731724D01*
X15057911Y-4744991D01*
X15057100Y-4746508D01*
X15046466Y-4759466D01*
X15033508Y-4770100D01*
X15033508Y-4770101D01*
X15018724Y-4778002D01*
X15002682Y-4782869D01*
X14990180Y-4784100D01*
X14981820Y-4784100D01*
X14969318Y-4782869D01*
X14953276Y-4778002D01*
X14938492Y-4770101D01*
X14938492Y-4770100D01*
X14925534Y-4759466D01*
X14914900Y-4746508D01*
X14914089Y-4744991D01*
X14906998Y-4731724D01*
X14902131Y-4715682D01*
X14900488Y-4699000D01*
X14902131Y-4682318D01*
X14906998Y-4666276D01*
X14914899Y-4651492D01*
X14914900Y-4651492D01*
X14925534Y-4638534D01*
X14938492Y-4627900D01*
X14940009Y-4627089D01*
X14953276Y-4619998D01*
X14969318Y-4615131D01*
X14981820Y-4613900D01*
X14990180Y-4613900D01*
X15002682Y-4615131D01*
X15002682Y-4615131D01*
G37*
G36*
X15510682Y-4615131D02*
G01*
X15526724Y-4619998D01*
X15539991Y-4627089D01*
X15541508Y-4627900D01*
X15554466Y-4638534D01*
X15565100Y-4651492D01*
X15565100Y-4651492D01*
X15573002Y-4666276D01*
X15577869Y-4682318D01*
X15579512Y-4699000D01*
X15577869Y-4715682D01*
X15573002Y-4731724D01*
X15565911Y-4744991D01*
X15565100Y-4746508D01*
X15554466Y-4759466D01*
X15541508Y-4770100D01*
X15541508Y-4770101D01*
X15526724Y-4778002D01*
X15510682Y-4782869D01*
X15498180Y-4784100D01*
X15489820Y-4784100D01*
X15477318Y-4782869D01*
X15461276Y-4778002D01*
X15446492Y-4770101D01*
X15446492Y-4770100D01*
X15433534Y-4759466D01*
X15422900Y-4746508D01*
X15422089Y-4744991D01*
X15414998Y-4731724D01*
X15410131Y-4715682D01*
X15408488Y-4699000D01*
X15410131Y-4682318D01*
X15414998Y-4666276D01*
X15422899Y-4651492D01*
X15422900Y-4651492D01*
X15433534Y-4638534D01*
X15446492Y-4627900D01*
X15448009Y-4627089D01*
X15461276Y-4619998D01*
X15477318Y-4615131D01*
X15489820Y-4613900D01*
X15498180Y-4613900D01*
X15510682Y-4615131D01*
X15510682Y-4615131D01*
G37*
G36*
X15764682Y-4615131D02*
G01*
X15780724Y-4619998D01*
X15793991Y-4627089D01*
X15795508Y-4627900D01*
X15808466Y-4638534D01*
X15819100Y-4651492D01*
X15819100Y-4651492D01*
X15827002Y-4666276D01*
X15831869Y-4682318D01*
X15833512Y-4699000D01*
X15831869Y-4715682D01*
X15827002Y-4731724D01*
X15819911Y-4744991D01*
X15819100Y-4746508D01*
X15808466Y-4759466D01*
X15795508Y-4770100D01*
X15795508Y-4770101D01*
X15780724Y-4778002D01*
X15764682Y-4782869D01*
X15752180Y-4784100D01*
X15743820Y-4784100D01*
X15731318Y-4782869D01*
X15715276Y-4778002D01*
X15700492Y-4770101D01*
X15700492Y-4770100D01*
X15687534Y-4759466D01*
X15676900Y-4746508D01*
X15676089Y-4744991D01*
X15668998Y-4731724D01*
X15664131Y-4715682D01*
X15662488Y-4699000D01*
X15664131Y-4682318D01*
X15668998Y-4666276D01*
X15676899Y-4651492D01*
X15676900Y-4651492D01*
X15687534Y-4638534D01*
X15700492Y-4627900D01*
X15702009Y-4627089D01*
X15715276Y-4619998D01*
X15731318Y-4615131D01*
X15743820Y-4613900D01*
X15752180Y-4613900D01*
X15764682Y-4615131D01*
X15764682Y-4615131D01*
G37*
G36*
X16018682Y-4615131D02*
G01*
X16034724Y-4619998D01*
X16047991Y-4627089D01*
X16049508Y-4627900D01*
X16062466Y-4638534D01*
X16073100Y-4651492D01*
X16073100Y-4651492D01*
X16081002Y-4666276D01*
X16085869Y-4682318D01*
X16087512Y-4699000D01*
X16085869Y-4715682D01*
X16081002Y-4731724D01*
X16073911Y-4744991D01*
X16073100Y-4746508D01*
X16062466Y-4759466D01*
X16049508Y-4770100D01*
X16049508Y-4770101D01*
X16034724Y-4778002D01*
X16018682Y-4782869D01*
X16006180Y-4784100D01*
X15997820Y-4784100D01*
X15985318Y-4782869D01*
X15969276Y-4778002D01*
X15954492Y-4770101D01*
X15954492Y-4770100D01*
X15941534Y-4759466D01*
X15930900Y-4746508D01*
X15930089Y-4744991D01*
X15922998Y-4731724D01*
X15918131Y-4715682D01*
X15916488Y-4699000D01*
X15918131Y-4682318D01*
X15922998Y-4666276D01*
X15930899Y-4651492D01*
X15930900Y-4651492D01*
X15941534Y-4638534D01*
X15954492Y-4627900D01*
X15956009Y-4627089D01*
X15969276Y-4619998D01*
X15985318Y-4615131D01*
X15997820Y-4613900D01*
X16006180Y-4613900D01*
X16018682Y-4615131D01*
X16018682Y-4615131D01*
G37*
G36*
X16272682Y-4615131D02*
G01*
X16288724Y-4619998D01*
X16301991Y-4627089D01*
X16303508Y-4627900D01*
X16316466Y-4638534D01*
X16327100Y-4651492D01*
X16327100Y-4651492D01*
X16335002Y-4666276D01*
X16339869Y-4682318D01*
X16341512Y-4699000D01*
X16339869Y-4715682D01*
X16335002Y-4731724D01*
X16327911Y-4744991D01*
X16327100Y-4746508D01*
X16316466Y-4759466D01*
X16303508Y-4770100D01*
X16303508Y-4770101D01*
X16288724Y-4778002D01*
X16272682Y-4782869D01*
X16260180Y-4784100D01*
X16251820Y-4784100D01*
X16239318Y-4782869D01*
X16223276Y-4778002D01*
X16208492Y-4770101D01*
X16208492Y-4770100D01*
X16195534Y-4759466D01*
X16184900Y-4746508D01*
X16184089Y-4744991D01*
X16176998Y-4731724D01*
X16172131Y-4715682D01*
X16170488Y-4699000D01*
X16172131Y-4682318D01*
X16176998Y-4666276D01*
X16184899Y-4651492D01*
X16184900Y-4651492D01*
X16195534Y-4638534D01*
X16208492Y-4627900D01*
X16210009Y-4627089D01*
X16223276Y-4619998D01*
X16239318Y-4615131D01*
X16251820Y-4613900D01*
X16260180Y-4613900D01*
X16272682Y-4615131D01*
X16272682Y-4615131D01*
G37*
G36*
X13732682Y-4615131D02*
G01*
X13748724Y-4619998D01*
X13761991Y-4627089D01*
X13763508Y-4627900D01*
X13776466Y-4638534D01*
X13787100Y-4651492D01*
X13787100Y-4651492D01*
X13795002Y-4666276D01*
X13799869Y-4682318D01*
X13801512Y-4699000D01*
X13799869Y-4715682D01*
X13795002Y-4731724D01*
X13787911Y-4744991D01*
X13787100Y-4746508D01*
X13776466Y-4759466D01*
X13763508Y-4770100D01*
X13763508Y-4770101D01*
X13748724Y-4778002D01*
X13732682Y-4782869D01*
X13720180Y-4784100D01*
X13711820Y-4784100D01*
X13699318Y-4782869D01*
X13683276Y-4778002D01*
X13668492Y-4770101D01*
X13668492Y-4770100D01*
X13655534Y-4759466D01*
X13644900Y-4746508D01*
X13644089Y-4744991D01*
X13636998Y-4731724D01*
X13632131Y-4715682D01*
X13630488Y-4699000D01*
X13632131Y-4682318D01*
X13636998Y-4666276D01*
X13644899Y-4651492D01*
X13644900Y-4651492D01*
X13655534Y-4638534D01*
X13668492Y-4627900D01*
X13670009Y-4627089D01*
X13683276Y-4619998D01*
X13699318Y-4615131D01*
X13711820Y-4613900D01*
X13720180Y-4613900D01*
X13732682Y-4615131D01*
X13732682Y-4615131D01*
G37*
G36*
X14494682Y-4615131D02*
G01*
X14510724Y-4619998D01*
X14523991Y-4627089D01*
X14525508Y-4627900D01*
X14538466Y-4638534D01*
X14549100Y-4651492D01*
X14549100Y-4651492D01*
X14557002Y-4666276D01*
X14561869Y-4682318D01*
X14563512Y-4699000D01*
X14561869Y-4715682D01*
X14557002Y-4731724D01*
X14549911Y-4744991D01*
X14549100Y-4746508D01*
X14538466Y-4759466D01*
X14525508Y-4770100D01*
X14525508Y-4770101D01*
X14510724Y-4778002D01*
X14494682Y-4782869D01*
X14482180Y-4784100D01*
X14473820Y-4784100D01*
X14461318Y-4782869D01*
X14445276Y-4778002D01*
X14430492Y-4770101D01*
X14430492Y-4770100D01*
X14417534Y-4759466D01*
X14406900Y-4746508D01*
X14406089Y-4744991D01*
X14398998Y-4731724D01*
X14394131Y-4715682D01*
X14392488Y-4699000D01*
X14394131Y-4682318D01*
X14398998Y-4666276D01*
X14406899Y-4651492D01*
X14406900Y-4651492D01*
X14417534Y-4638534D01*
X14430492Y-4627900D01*
X14432009Y-4627089D01*
X14445276Y-4619998D01*
X14461318Y-4615131D01*
X14473820Y-4613900D01*
X14482180Y-4613900D01*
X14494682Y-4615131D01*
X14494682Y-4615131D01*
G37*
M02*
