G04 #@! TF.GenerationSoftware,KiCad,Pcbnew,(5.1.2)-1*
G04 #@! TF.CreationDate,2019-06-24T21:27:01+09:30*
G04 #@! TF.ProjectId,EEPROM_Programmer,45455052-4f4d-45f5-9072-6f6772616d6d,rev?*
G04 #@! TF.SameCoordinates,Original*
G04 #@! TF.FileFunction,Legend,Bot*
G04 #@! TF.FilePolarity,Positive*
%FSLAX45Y45*%
G04 Gerber Fmt 4.5, Leading zero omitted, Abs format (unit mm)*
G04 Created by KiCad (PCBNEW (5.1.2)-1) date 2019-06-24 21:27:01*
%MOMM*%
%LPD*%
G04 APERTURE LIST*
%ADD10C,0.120000*%
%ADD11C,0.150000*%
G04 APERTURE END LIST*
D10*
X13449000Y-8484000D02*
X13195000Y-8230000D01*
X13449000Y-9627000D02*
X13449000Y-8484000D01*
X13614000Y-9792000D02*
X13449000Y-9627000D01*
X20079000Y-9792000D02*
X13614000Y-9792000D01*
X20079000Y-8839000D02*
X20079000Y-9792000D01*
X20714000Y-8839000D02*
X20079000Y-8839000D01*
X20714000Y-7671000D02*
X20714000Y-8839000D01*
X20079000Y-7671000D02*
X20714000Y-7671000D01*
X20079000Y-5664000D02*
X20079000Y-7671000D01*
X20269000Y-5664000D02*
X20079000Y-5664000D01*
X20269000Y-4750000D02*
X20269000Y-5664000D01*
X20079000Y-4750000D02*
X20269000Y-4750000D01*
X20079000Y-4432000D02*
X20079000Y-4750000D01*
X13449000Y-4432000D02*
X20079000Y-4432000D01*
X13449000Y-4699000D02*
X13449000Y-4432000D01*
X13195000Y-4953000D02*
X13449000Y-4699000D01*
X13195000Y-8230000D02*
X13195000Y-4953000D01*
D11*
X20396190Y-8200238D02*
X20396190Y-8281190D01*
X20391429Y-8290714D01*
X20386667Y-8295476D01*
X20377143Y-8300238D01*
X20358095Y-8300238D01*
X20348571Y-8295476D01*
X20343810Y-8290714D01*
X20339048Y-8281190D01*
X20339048Y-8200238D01*
X20239048Y-8300238D02*
X20296190Y-8300238D01*
X20267619Y-8300238D02*
X20267619Y-8200238D01*
X20277143Y-8214524D01*
X20286667Y-8224048D01*
X20296190Y-8228809D01*
M02*
